<svg id="Layer_1" data-name="Layer 1" xmlns="http://www.w3.org/2000/svg" viewBox="0 0 531.2695 360.5887"><defs><style>.cls-1{fill:#7f2e68;}.cls-2{fill:#4fb1c0;}.cls-3{fill:#ffcb75;}.cls-4{fill:#ffe9b9;}.cls-5{fill:#f8961d;}</style></defs><path class="cls-1" d="M334.9849,341.4787l-1.9085,2.5508a5.66,5.66,0,0,0-.9-.4645c1.51,3.3259,3.1348,8.4833,1.0936,12.4011-1.6165,3.1-5.0778,4.7778-10.2936,4.9875a12.7159,12.7159,0,0,0-4.4434.9662,9.987,9.987,0,0,1-3.8647.8919,5.3214,5.3214,0,0,1-3.5489-1.2343c-2.5906-2.1978-3.0843-7.0234-1.5-14.721-1.8925.8865-3.6577,1.8209-5.2238,2.71a6.7408,6.7408,0,0,1-8.1541-1.1414c-2.4712-2.5322-3.7931-3.5329-6.4076-3.4719a5.48,5.48,0,0,1,.4831,4.8017c-.9423,2.02-3.379,3.0074-7.4428,3.0074-.2894,0-.584-.0053-.8892-.0133-4.7354-.1566-7.488-1.3324-8.417-3.5966a5.1453,5.1453,0,0,1,.3955-4.26c-.0292-.0027-.0557-.0027-.0849-.0027-2.1607,0-3.1.9662-5.5556,3.4852l-.0478.0478a6.7409,6.7409,0,0,1-8.1568,1.1413c-1.5661-.8892-3.3285-1.8209-5.2211-2.7074,1.5846,7.6949,1.0883,12.5232-1.5,14.7184a5.3219,5.3219,0,0,1-3.5489,1.2342,9.9768,9.9768,0,0,1-3.8647-.8892,12.658,12.658,0,0,0-4.4434-.9662c-5.2158-.2123-8.68-1.89-10.2936-4.9875-2.0412-3.9205-.4167-9.0752,1.091-12.4011a5.3038,5.3038,0,0,0-.9131.4751l-1.8926-2.5614c.4008-.3026,10.0839-7.2172,32.16,5.3166a3.5586,3.5586,0,0,0,4.3027-.5945l.0478-.05c3.448-3.5382,5.0221-5.1547,11.0023-4.1063l2.93.5123-2.0518,2.1554c-.6636.7034-1.76,2.3809-1.4068,3.2356.292.7034,1.9058,1.4971,5.5715,1.6165,4.5044.1487,5.24-.9343,5.3405-1.152.38-.8175-.69-2.6941-1.574-3.6789l-1.9164-2.1368,2.8268-.4963c5.9723-1.0432,8.271.5255,11.7562,4.101a3.5544,3.5544,0,0,0,4.3027.5945C324.901,334.2641,334.5841,341.1787,334.9849,341.4787Zm-4.5416,13.02c1.7917-3.4348-.799-9.2611-2.3332-11.91-.5123-.0531-1.0591-.0876-1.6536-.0982a35.445,35.445,0,0,0-13.224,2.8083c-2.5057,10.413-.8733,13.1549-.0531,13.85,1.0777.9157,3.0419.292,4.1142-.1619a15.8515,15.8515,0,0,1,5.5529-1.2157C326.8387,357.6092,329.3922,356.51,330.4433,354.4983Zm-79.105,4.65c.8176-.6955,2.4526-3.44-.0531-13.8531a35.562,35.562,0,0,0-13.2239-2.8083c-.5946.0106-1.1441.0451-1.6537.0982-1.5342,2.6491-4.1249,8.4754-2.3332,11.91,1.0511,2.012,3.6046,3.1136,7.5968,3.2755a15.9225,15.9225,0,0,1,5.5529,1.213C248.2964,359.438,250.258,360.0618,251.3383,359.1487Z" transform="translate(-16.0869 -187.007)"/><path class="cls-1" d="M424.6064,191.5025a15.9877,15.9877,0,0,1,4.592,13.19,15.23,15.23,0,0,1-.6237,3.1613,14.5214,14.5214,0,0,1-.9025,2.1925c-1.9032,3.8143-11.6845,24.4413-17.2692,56.0387a26.4483,26.4483,0,0,1-3.2755,8.8761c-4.677,7.9392-15.6872,20.9614-37.5193,20.9641-.5759,0-1.16-.0133-1.7518-.0319-.069,2.7181-.2363,5.7069-.5627,8.6957a104.4418,104.4418,0,0,1,21.2056,18.1345c6.105,6.9783,10.24,14.1132,12.29,21.2a36.3155,36.3155,0,0,1-2.227,26.3975,47.1142,47.1142,0,0,1-28.4679,24.4334,49.9376,49.9376,0,0,1-14.8591,2.3225,44.2777,44.2777,0,0,1-11.2465-1.4307c-10.6439-2.7844-19.751-9.5-27.085-19.9581-.0079,0-.0185.0027-.0265.0027a16.4544,16.4544,0,0,1-9.8715-3.5037l-.0292-.0213c-3.1507-2.5216-4.6372-5.9165-6.0758-9.1973-.4247-.9662-.8574-1.9589-1.3352-2.9278l-34.9127-.0026c-.4777.9715-.9131,1.9616-1.3351,2.9277-1.4387,3.2835-2.9251,6.6757-6.0785,9.1974l-.0265.0239a16.5122,16.5122,0,0,1-9.5955,3.4957c-7.334,10.4608-16.441,17.1763-27.0876,19.9608a44.2479,44.2479,0,0,1-11.2439,1.4307,49.9417,49.9417,0,0,1-14.8617-2.3226,47.1017,47.1017,0,0,1-28.4652-24.4333,36.2968,36.2968,0,0,1-2.23-26.3949c2.0492-7.09,6.1846-14.2246,12.2923-21.2029a104.6066,104.6066,0,0,1,21.203-18.1346c-.3239-2.9888-.4938-5.9776-.5628-8.693-23,.7167-34.4694-12.786-39.2711-20.9348a26.563,26.563,0,0,1-3.2755-8.8762c-5.5847-31.5947-15.3634-52.2217-17.2665-56.036a14.7786,14.7786,0,0,1-.9052-2.1925,15.4587,15.4587,0,0,1-.6211-3.164A15.9793,15.9793,0,0,1,139.914,191.5a16.7689,16.7689,0,0,1,13.7707-4.3638c12.0455,1.4015,25.1075,5.1123,38.8252,11.0341a239.1014,239.1014,0,0,1,33.8324,18.22,291.1556,291.1556,0,0,1,32.3645,23.9821,6.8149,6.8149,0,0,1,1.8235-.2894c.0107,0,.0239.0027.0372.0027a5.9536,5.9536,0,0,1,2.8667.6981c3.9868,2.1235,5.4573,8.271,5.6139,8.9744l.1779.8069-.5548.6105c-.0451.05-4.6292,5.1866-2.9675,9.2371,1.4147,3.44,7.111,5.54,16.4782,6.07l.1672.0027c9.3592-.5335,15.0528-2.63,16.4649-6.07,1.6643-4.0506-2.9224-9.1894-2.9675-9.24l-.5521-.6105.1778-.8069c.1566-.7008,1.63-6.8695,5.63-8.9824a5.44,5.44,0,0,1,3.2065-.6768,6.5757,6.5757,0,0,1,1.5023.276,291.0773,291.0773,0,0,1,32.3645-23.982A239.2719,239.2719,0,0,1,372.0078,198.17c13.7177-5.9192,26.7824-9.6326,38.8252-11.0341A16.7676,16.7676,0,0,1,424.6064,191.5025Zm1.4174,12.9028a12.8627,12.8627,0,0,0-3.6417-10.6227A13.43,13.43,0,0,0,411.1993,190.3c-26.6072,3.0976-53.4374,17.3409-71.2614,28.744a286.944,286.944,0,0,0-32.1867,23.8652c.085,3.5914.5468,5.0566.8149,5.6113,5.8529-2.4393,10.1476-1.8049,12.7409-.8255.0637-.1088.1248-.2176.1885-.3291,3.56-6.2935,8.9372-15.8067,14.7794-18.461l.0584-.0239a67.22,67.22,0,0,1,14.3229-3.9736c6.4023-.9794,11.3686-.5494,14.7582,1.2794l.0371.0186a93.9451,93.9451,0,0,1,10.7979,7.2862l.0637.0531c4.1037,3.517,6.66,7.9949,8.6187,11.91l.0186.04c3.6683,7.8595,3.4507,17.1577-.6132,26.1772l-.0159.0318c-3.4878,7.3154-9.6273,12.717-16.6136,14.6972.1009,1.4147.1885,3.6364.1885,6.3094,21.3941.69,32.0407-11.82,36.4867-19.3662a23.2611,23.2611,0,0,0,2.8826-7.8144c5.6618-32.0274,15.6182-53.0207,17.5559-56.904a11.7007,11.7007,0,0,0,.7114-1.7147A12.209,12.209,0,0,0,426.0238,204.4053ZM395.6846,368.9512a33.2045,33.2045,0,0,0,2.0545-24.1068c-1.9085-6.6306-5.8078-13.3487-11.5916-19.9687a101.9851,101.9851,0,0,0-19.3157-16.7675,40.348,40.348,0,0,1-2.8083,10.3387l-.2389-.1115c-7.6472,19.613-14.8246,25.4791-17.2745,27-.0053.0186-.0106.0372-.0159.0584,1.006,3.1109,2.9251,10.8935-.3425,17.4763-2.15,4.3292-6.105,7.2888-11.7561,8.7965a32.6555,32.6555,0,0,1-4.523.7724c-.9211.1088-1.7917.215-2.6437.3743a17.9739,17.9739,0,0,0-4.7779,1.6138,11.6755,11.6755,0,0,1-1.9774.7671c17.2187,23.2389,39.6453,19.3556,48.6648,16.5207A43.9127,43.9127,0,0,0,395.6846,368.9512Zm-14.2459-98.6038c3.6683-8.1489,3.8913-16.4889.6344-23.4857-1.9005-3.7984-4.162-7.74-7.8012-10.87-.31-.2416-.6158-.47-.9237-.7008a53.2028,53.2028,0,0,1,3.3817,7.1509,21.9349,21.9349,0,0,1,1.2608,11.9552c-1.6776,9.7441-1.521,16.725.43,19.1485a2.5773,2.5773,0,0,0,.7671.6609A27.1289,27.1289,0,0,0,381.4387,270.3474Zm-3.5462,5.5582a4.7579,4.7579,0,0,1-1.1255-1.0273c-3.0365-3.7691-2.1473-13.4151-.8679-20.8419a19.8164,19.8164,0,0,0-1.1361-10.8006c-1.7094-4.2337-3.6842-8.5762-7.2331-12.0348-1.2184-.7884-2.4261-1.5263-3.6418-2.2191-6.1289-3.2834-19.0821-.1088-26.3232,2.8349-4.8893,2.2482-10.1529,11.5517-13.2983,17.1153-.04.0743-.08.1433-.1221.215.0292.0345.0584.069.085.1061,2.7658,1.29,7.034,4.6876,6.8561,9.9618,2.9384,2.32,6.774,7.3605,4.7752,13.5372a11.4134,11.4134,0,0,1,.7778,13.5717c1.46,2.4765,4.9,9.4787,2.3756,16.964-2.32,6.8721-8.9637,12.12-19.7484,15.6-1.5793,1.2369-3.1082,3.13-2.88,4.016.1406.5548,1.359,1.3511,4.3345,1.7758l2.0173.2866-.77,1.89c-.1275.3186-1.4307,3.1853-7.1562,5.9484-7.3021,3.525-18.3707,5.3831-32.898,5.5238h-.0319c-14.5352-.1407-25.49-2.0014-32.5556-5.5344-5.5874-2.7923-6.7049-5.71-6.8137-6.0333l-.6078-1.8129,1.8925-.2708c2.9357-.4194,3.8488-1.1546,3.9231-1.4864.1726-.783-1.68-2.8349-3.8541-4.2868-10.6545-3.4268-17.1285-8.5842-19.2387-15.3315-2.3863-7.6127,1.574-14.7715,3.225-17.2958a11.4074,11.4074,0,0,1,.8043-13.5266c-2.0014-6.1766,1.8368-11.2172,4.7752-13.5371-.1779-5.2742,4.0877-8.6692,6.8562-9.9618.0265-.0345.0557-.069.0822-.1035-.04-.0744-.08-.1434-.1221-.215-3.1454-5.5636-8.4063-14.8671-13.2956-17.1153-7.2411-2.9463-20.1943-6.1209-26.3232-2.8375-1.2157.6954-2.4234,1.4307-3.6418,2.219-3.5489,3.4613-5.5237,7.8038-7.2331,12.0349a19.82,19.82,0,0,0-1.1361,10.8005c1.2794,7.4269,2.1687,17.0728-.8679,20.842a4.7007,4.7007,0,0,1-1.1255,1.0272,22.1977,22.1977,0,0,0,12.2392,7.7242l1.6006.345-.3822,1.5714a106.7474,106.7474,0,0,0,.51,20.542l.0664.1168a.3468.3468,0,0,1-.0478.0292,40.7909,40.7909,0,0,0,2.5853,10.4476c3.9258.852,17.7577,4.4407,21.28,13.346,1.7386,4.393.7087,9.3221-3.05,14.6574a2.1,2.1,0,0,1-.6264,1.55c-.8388,2.588-2.665,9.63.1248,15.2307,1.7253,3.4666,4.9954,5.8634,9.7175,7.1216a29.4367,29.4367,0,0,0,4.0824.69c.9317.1115,1.8926.2283,2.8428.4035a21.2717,21.2717,0,0,1,5.6193,1.8952c3.52,1.7545,8.2577,1.006,12.0746-1.9058,2.5323-2.0333,3.7958-4.9212,5.1362-7.979.5707-1.3033,1.1626-2.649,1.8713-3.9895l.4486-.8467,38.78.0026.4486.8468c.7087,1.34,1.3006,2.6862,1.8713,3.99,1.34,3.0578,2.6039,5.9457,5.1362,7.9763,3.8169,2.9145,8.5549,3.663,12.0746,1.9085a21.2681,21.2681,0,0,1,5.6193-1.8952c.95-.1779,1.9111-.292,2.8428-.4062a29.05,29.05,0,0,0,4.0824-.6874c4.7221-1.2582,7.9922-3.6551,9.7176-7.1217,3.4665-6.96-.1965-16.1517-.2336-16.2446l.0982-.04a2.996,2.996,0,0,1-.0637-.4964c-3.7586-5.3379-4.7885-10.2644-3.05-14.6573,3.5224-8.9054,17.3542-12.4967,21.28-13.3487a40.8811,40.8811,0,0,0,2.5853-10.4449c-.0292-.0159-.0451-.0266-.05-.0292l.069-.1168a106.746,106.746,0,0,0,.51-20.542l-.3822-1.5714,1.6006-.3451A22.2124,22.2124,0,0,0,377.8925,275.9056Zm-32.6353,67.0781c1.9483-1.2741,8.2046-6.4342,15.1484-23.353-4.7725,1.2183-15.22,4.6053-17.8983,11.3766a9.4433,9.4433,0,0,0-.3928,5.5024,18.2308,18.2308,0,0,0,3.0233,6.4687C345.1776,342.9784,345.2174,342.981,345.2572,342.9837Zm-9.2716-40.6886c2.2057-6.4952-1.1918-12.8656-2.2509-14.6122-9.7415-2.5269-17.4895-2.0226-23.0424,1.5a17.5813,17.5813,0,0,0-7.5065,10.5962c-.5229,5.8475-2.4182,10.052-5.6379,12.494a11.091,11.091,0,0,1-6.8986,2.2111c-2.4474,4.969-5.1442,7.3738-8.2471,7.3473-4.3027-.0372-7.3579-5.0566-8.5284-7.35a11.0831,11.0831,0,0,1-6.904-2.2111c-3.22-2.442-5.1149-6.6465-5.6379-12.494a17.5689,17.5689,0,0,0-7.5091-10.5962c-5.5582-3.525-13.3222-4.0267-23.0823-1.4891-1.1519,1.7041-5.1627,8.3028-3.0684,14.9493,1.805,5.7334,7.65,10.206,17.37,13.2956l.2017.0637.18.1168c1.0379.6716,6.1873,4.1992,5.4069,7.7561-.4247,1.94-2.3066,2.9171-4.0187,3.4294,2.8084,2.6331,11.2625,7.6073,35.0853,7.8409,23.7776-.2336,32.6326-5.2,35.68-7.8675-1.7891-.5361-3.7666-1.5607-4.2815-3.5886-.8813-3.4773,3.4029-6.8669,4.2708-7.5119l.215-.1592.2522-.08C327.9429,312.7851,333.9842,308.1958,335.9856,302.2951Zm-1.9536-17.8213a8.3345,8.3345,0,0,0-1.1122-10.2219l-.77-.7538.4115-1.0007c2.7339-6.551-3.7453-11.0129-4.0214-11.1987l-.82-.5521.1274-.9821a6.4351,6.4351,0,0,0-2.2455-5.7494,11.4731,11.4731,0,0,0-3.0579-2.0252l-.2548-.1036-.21-.1884c-.1672-.1433-4.4725-3.7347-12.85.0053a2.3465,2.3465,0,0,1-2.2057-.21c-.9742-.6132-2.2536-2.1341-2.4474-8.1515a2.7811,2.7811,0,0,0-1.9191.2123c-2.0226,1.006-3.3444,4.3054-3.8859,6.1608,1.4493,1.8341,4.9822,7.0314,2.9941,11.8994a9.7578,9.7578,0,0,1-4.608,4.7646,28.2094,28.2094,0,0,1,13.5558,8.7355,32.351,32.351,0,0,1,5.3857,8.4859C321.1743,282.4645,327.1731,282.7538,334.032,284.4738Zm-21.0119.0319a29.7681,29.7681,0,0,0-4.7778-7.3791,24.5132,24.5132,0,0,0-17.1046-8.5895,52.4788,52.4788,0,0,1-8.6612,1.1307l-.05.0027-.3849-.0053a52.19,52.19,0,0,1-8.6612-1.1308,24.5136,24.5136,0,0,0-17.1046,8.5895,29.8678,29.8678,0,0,0-4.7778,7.3791,21.39,21.39,0,0,1,4.0877,2.0226,20.4641,20.4641,0,0,1,8.8947,12.76l.0186.1327c.4273,4.9291,1.8925,8.39,4.3558,10.2856a7.8,7.8,0,0,0,5.7015,1.5369l1.237-.215.5069,1.1493c.7273,1.6723,3.4188,6.45,6.1342,6.474h.0186c1.8209,0,3.87-2.3066,5.7759-6.4979l.5176-1.136,1.2183.2283a7.8023,7.8023,0,0,0,5.6989-1.54c2.4633-1.8952,3.9285-5.3538,4.3558-10.2829l.0186-.1327a20.4638,20.4638,0,0,1,8.8947-12.76A21.2333,21.2333,0,0,1,313.02,284.5057Zm-45.6628-18.1292a9.7633,9.7633,0,0,1-4.6053-4.7646c-1.9881-4.8681,1.5449-10.0653,2.9941-11.8995-.5388-1.8527-1.8633-5.1547-3.8886-6.1607a2.7718,2.7718,0,0,0-1.9164-.2124c-.1938,6.0174-1.4732,7.541-2.4473,8.1515a2.3464,2.3464,0,0,1-2.2058.21c-8.3771-3.74-12.6825-.1486-12.86.008l-.21.1885-.2495.0929c-.2416.1008-5.9989,2.53-5.2981,7.7719l.13.9848-.8281.5521c-.2734.1831-6.75,4.6451-4.0161,11.196l.4194,1.006-.783.7565a8.3288,8.3288,0,0,0-1.1069,10.214c6.8589-1.72,12.8577-2.0094,17.9328-.8733a32.318,32.318,0,0,1,5.3831-8.486A28.2335,28.2335,0,0,1,267.3573,266.3765ZM255.9516,248.518c.2681-.5521.73-2.0173.8149-5.6113a286.5732,286.5732,0,0,0-32.1894-23.8626c-17.8213-11.4058-44.6515-25.649-71.2613-28.744a13.4147,13.4147,0,0,0-11.18,3.48,12.8764,12.8764,0,0,0-3.6444,10.6228,12.1857,12.1857,0,0,0,.4937,2.5057,11.5847,11.5847,0,0,0,.7114,1.7147c1.9377,3.8833,11.8941,24.8792,17.5559,56.9066a23.3039,23.3039,0,0,0,2.8826,7.8144c4.446,7.5463,15.082,20.0563,36.4867,19.3635,0-2.6729.0876-4.892.1885-6.3094-6.9863-1.9775-13.1258-7.3791-16.6136-14.6971l-.0159-.0319c-4.0638-9.0195-4.2815-18.315-.6132-26.1772l.0186-.0371c1.9589-3.9179,4.5124-8.3931,8.616-11.91l.0664-.0531a93.6659,93.6659,0,0,1,10.7979-7.2889l.0345-.0185c3.3922-1.8262,8.3585-2.2562,14.7608-1.2768a67.0668,67.0668,0,0,1,14.3229,3.9709l.0584.0239c5.8422,2.657,11.22,12.1676,14.7794,18.461.0637.1142.1248.22.1885.3318C245.804,246.713,250.0987,246.0813,255.9516,248.518ZM243.9937,375.2606a11.8691,11.8691,0,0,1-2.23-.8361,18.0986,18.0986,0,0,0-4.7779-1.6139c-.852-.1592-1.7226-.2628-2.6437-.3742a32.6048,32.6048,0,0,1-4.523-.7724c-5.6511-1.5077-9.6061-4.4673-11.7561-8.7966-3.3392-6.7261-1.2608-14.7077-.2787-17.6779-2.6385-1.7254-9.6247-7.8038-17.0516-26.8541l-.2389.1088a40.3906,40.3906,0,0,1-2.8109-10.3387,102.0878,102.0878,0,0,0-19.3158,16.77c-5.7811,6.6173-9.68,13.3381-11.5889,19.9687a33.2067,33.2067,0,0,0,2.0545,24.1068,43.9017,43.9017,0,0,0,26.5462,22.7611C204.3881,394.5445,226.7829,398.4225,243.9937,375.2606Zm-21.59-38.7535a9.4445,9.4445,0,0,0-.3928-5.5025c-1.789-4.52-7.1323-7.5092-11.3022-9.2186a50.7694,50.7694,0,0,0-6.5988-2.158c6.9465,16.9215,13.2028,22.0789,15.1511,23.353.04-.0026.08-.0026.1194-.0053A18.2751,18.2751,0,0,0,222.4032,336.5071Zm-1.282,8.6027-.0558.0717.04.0186C221.1132,345.1709,221.1159,345.139,221.1212,345.11Zm-1.2688-.422.1646.0663-.1832-.1353ZM191.1668,235.2887c-.3052.2309-.6105.4618-.9237.7007-3.6391,3.13-5.898,7.0739-7.7985,10.87-3.2569,6.9995-3.0339,15.3368.6344,23.4857a27.1289,27.1289,0,0,0,2.2509,3.8594,2.5283,2.5283,0,0,0,.7671-.6582c1.951-2.4261,2.1076-9.4044.4274-19.1512a21.984,21.984,0,0,1,1.2608-11.9552A54.172,54.172,0,0,1,191.1668,235.2887Z" transform="translate(-16.0869 -187.007)"/><path class="cls-2" d="M422.3821,193.7826a12.8627,12.8627,0,0,1,3.6417,10.6227,12.209,12.209,0,0,1-.491,2.5057,11.7007,11.7007,0,0,1-.7114,1.7147c-1.9377,3.8833-11.8941,24.8766-17.5559,56.904a23.2611,23.2611,0,0,1-2.8826,7.8144C399.9369,280.89,389.29,293.4,367.8962,292.71c0-2.673-.0876-4.8947-.1885-6.3094,6.9863-1.98,13.1258-7.3818,16.6136-14.6972l.0159-.0318c4.0639-9.0195,4.2815-18.3177.6132-26.1772l-.0186-.04c-1.9589-3.9152-4.515-8.3931-8.6187-11.91l-.0637-.0531a93.9451,93.9451,0,0,0-10.7979-7.2862l-.0371-.0186c-3.39-1.8288-8.3559-2.2588-14.7582-1.2794a67.22,67.22,0,0,0-14.3229,3.9736l-.0584.0239c-5.8422,2.6543-11.22,12.1675-14.7794,18.461-.0637.1115-.1248.22-.1885.3291-2.5933-.9794-6.888-1.6138-12.7409.8255-.2681-.5547-.73-2.02-.8149-5.6113a286.944,286.944,0,0,1,32.1867-23.8652c17.824-11.4031,44.6542-25.6464,71.2614-28.744A13.43,13.43,0,0,1,422.3821,193.7826Z" transform="translate(-16.0869 -187.007)"/><path class="cls-2" d="M397.7391,344.8444a33.2045,33.2045,0,0,1-2.0545,24.1068,43.9127,43.9127,0,0,1-26.5462,22.7637c-9.0195,2.8349-31.4461,6.7182-48.6648-16.5207a11.6755,11.6755,0,0,0,1.9774-.7671,17.9739,17.9739,0,0,1,4.7779-1.6138c.852-.1593,1.7226-.2655,2.6437-.3743a32.6555,32.6555,0,0,0,4.523-.7724c5.6511-1.5077,9.6061-4.4673,11.7561-8.7965,3.2676-6.5828,1.3485-14.3654.3425-17.4763.0053-.0212.0106-.04.0159-.0584,2.45-1.5209,9.6273-7.387,17.2745-27l.2389.1115a40.348,40.348,0,0,0,2.8083-10.3387,101.9851,101.9851,0,0,1,19.3157,16.7675C391.9313,331.4957,395.8306,338.2138,397.7391,344.8444Z" transform="translate(-16.0869 -187.007)"/><path class="cls-3" d="M382.0731,246.8617c3.2569,6.9968,3.0339,15.3368-.6344,23.4857a27.1289,27.1289,0,0,1-2.2509,3.8594,2.5773,2.5773,0,0,1-.7671-.6609c-1.951-2.4235-2.1076-9.4044-.43-19.1485a21.9349,21.9349,0,0,0-1.2608-11.9552,53.2028,53.2028,0,0,0-3.3817-7.1509c.3079.231.6132.4592.9237.7008C377.9111,239.1216,380.1726,243.0633,382.0731,246.8617Z" transform="translate(-16.0869 -187.007)"/><path class="cls-4" d="M376.767,274.8783a4.7579,4.7579,0,0,0,1.1255,1.0273,22.2124,22.2124,0,0,1-12.2392,7.7241l-1.6006.3451.3822,1.5714a106.746,106.746,0,0,1-.51,20.542l-.069.1168c.0053.0026.0212.0133.05.0292a40.8811,40.8811,0,0,1-2.5853,10.4449c-3.9258.852-17.7576,4.4433-21.28,13.3487-1.7386,4.3929-.7087,9.3194,3.05,14.6573a2.996,2.996,0,0,0,.0637.4964l-.0982.04c.0371.0929,3.7,9.2849.2336,16.2446-1.7254,3.4666-4.9955,5.8635-9.7176,7.1217a29.05,29.05,0,0,1-4.0824.6874c-.9317.1142-1.8926.2283-2.8428.4062a21.2681,21.2681,0,0,0-5.6193,1.8952c-3.52,1.7545-8.2577,1.006-12.0746-1.9085-2.5323-2.0306-3.7958-4.9185-5.1362-7.9763-.5707-1.3033-1.1626-2.6491-1.8713-3.99l-.4486-.8468-38.78-.0026-.4486.8467c-.7087,1.34-1.3006,2.6862-1.8713,3.9895-1.34,3.0578-2.6039,5.9457-5.1362,7.979-3.8169,2.9118-8.5549,3.66-12.0746,1.9058a21.2717,21.2717,0,0,0-5.6193-1.8952c-.95-.1752-1.9111-.292-2.8428-.4035a29.4367,29.4367,0,0,1-4.0824-.69c-4.7221-1.2582-7.9922-3.655-9.7175-7.1216-2.79-5.6007-.9636-12.6427-.1248-15.2307a2.1,2.1,0,0,0,.6264-1.55c3.7586-5.3353,4.7885-10.2644,3.05-14.6574-3.5223-8.9053-17.3542-12.494-21.28-13.346a40.7909,40.7909,0,0,1-2.5853-10.4476.3468.3468,0,0,0,.0478-.0292l-.0664-.1168a106.7474,106.7474,0,0,1-.51-20.542l.3822-1.5714-1.6006-.345a22.1977,22.1977,0,0,1-12.2392-7.7242,4.7007,4.7007,0,0,0,1.1255-1.0272c3.0366-3.7692,2.1473-13.4151.8679-20.842a19.82,19.82,0,0,1,1.1361-10.8c1.7094-4.2311,3.6842-8.5736,7.2331-12.0349,1.2184-.7883,2.4261-1.5236,3.6418-2.219,6.1289-3.2834,19.0821-.1088,26.3232,2.8375,4.8893,2.2482,10.15,11.5517,13.2956,17.1153.0425.0716.0823.1406.1221.215-.0265.0345-.0557.069-.0822.1035-2.7685,1.2926-7.0341,4.6876-6.8562,9.9618-2.9384,2.32-6.7766,7.3605-4.7752,13.5371a11.4074,11.4074,0,0,0-.8043,13.5266c-1.651,2.5243-5.6113,9.6831-3.225,17.2958,2.11,6.7473,8.5842,11.9047,19.2387,15.3315,2.1739,1.4519,4.0267,3.5038,3.8541,4.2868-.0743.3318-.9874,1.067-3.9231,1.4864l-1.8925.2708.6078,1.8129c.1088.3238,1.2263,3.241,6.8137,6.0333,7.0659,3.533,18.02,5.3937,32.5556,5.5344h.0319c14.5273-.1407,25.5959-1.9988,32.898-5.5238,5.7255-2.7631,7.0287-5.63,7.1562-5.9484l.77-1.89-2.0173-.2866c-2.9755-.4247-4.1939-1.221-4.3345-1.7758-.2283-.8865,1.3006-2.7791,2.88-4.016,10.7847-3.48,17.4285-8.7275,19.7484-15.6,2.5243-7.4853-.9158-14.4875-2.3756-16.964a11.4134,11.4134,0,0,0-.7778-13.5717c1.9988-6.1767-1.8368-11.2173-4.7752-13.5372.1779-5.2742-4.09-8.6718-6.8561-9.9618-.0266-.0371-.0558-.0716-.085-.1061.0425-.0717.0823-.1407.1221-.215,3.1454-5.5636,8.409-14.8671,13.2983-17.1153,7.2411-2.9437,20.1943-6.1183,26.3232-2.8349,1.2157.6928,2.4234,1.4307,3.6418,2.2191,3.5489,3.4586,5.5237,7.8011,7.2331,12.0348a19.8164,19.8164,0,0,1,1.1361,10.8006C374.62,261.4632,373.7305,271.1092,376.767,274.8783ZM333.0764,344.03l1.9085-2.5508c-.4008-.3-10.0839-7.2146-32.16,5.3166a3.5544,3.5544,0,0,1-4.3027-.5945c-3.4852-3.5755-5.7839-5.1442-11.7562-4.101l-2.8268.4963,1.9164,2.1368c.8839.9848,1.9536,2.8614,1.574,3.6789-.1008.2177-.8361,1.3007-5.3405,1.152-3.6657-.1194-5.2795-.9131-5.5715-1.6165-.353-.8547.7432-2.5322,1.4068-3.2356l2.0518-2.1554-2.93-.5123c-5.98-1.0484-7.5543.5681-11.0023,4.1063l-.0478.05a3.5586,3.5586,0,0,1-4.3027.5945c-22.0762-12.5338-31.7593-5.6192-32.16-5.3166l1.8926,2.5614a5.3038,5.3038,0,0,1,.9131-.4751c-1.5077,3.3259-3.1322,8.4806-1.091,12.4011,1.6139,3.0976,5.0778,4.7752,10.2936,4.9875a12.658,12.658,0,0,1,4.4434.9662,9.9768,9.9768,0,0,0,3.8647.8892,5.3219,5.3219,0,0,0,3.5489-1.2342c2.588-2.1952,3.0843-7.0235,1.5-14.7184,1.8926.8865,3.655,1.8182,5.2211,2.7074a6.7409,6.7409,0,0,0,8.1568-1.1413l.0478-.0478c2.4553-2.519,3.3949-3.4852,5.5556-3.4852.0292,0,.0557,0,.0849.0027a5.1453,5.1453,0,0,0-.3955,4.26c.929,2.2642,3.6816,3.44,8.417,3.5966.3052.008.6.0133.8892.0133,4.0638,0,6.5-.9874,7.4428-3.0074a5.48,5.48,0,0,0-.4831-4.8017c2.6145-.061,3.9364.94,6.4076,3.4719a6.7408,6.7408,0,0,0,8.1541,1.1414c1.5661-.8892,3.3313-1.8236,5.2238-2.71-1.5846,7.6976-1.0909,12.5232,1.5,14.721a5.3214,5.3214,0,0,0,3.5489,1.2343,9.987,9.987,0,0,0,3.8647-.8919,12.7159,12.7159,0,0,1,4.4434-.9662c5.2158-.21,8.6771-1.8872,10.2936-4.9875,2.0412-3.9178.4167-9.0752-1.0936-12.4011A5.66,5.66,0,0,1,333.0764,344.03Z" transform="translate(-16.0869 -187.007)"/><path class="cls-3" d="M360.4056,319.6307c-6.9438,16.9188-13.2,22.0789-15.1484,23.353-.04-.0027-.08-.0053-.1194-.0053a18.2308,18.2308,0,0,1-3.0233-6.4687,9.4433,9.4433,0,0,1,.3928-5.5024C345.1856,324.236,355.6331,320.849,360.4056,319.6307Z" transform="translate(-16.0869 -187.007)"/><path class="cls-2" d="M333.7347,287.6829c1.0591,1.7466,4.4566,8.117,2.2509,14.6122-2.0014,5.9007-8.0427,10.49-17.9514,13.6407l-.2522.08-.215.1592c-.8679.645-5.1521,4.0346-4.2708,7.5119.5149,2.0279,2.4924,3.0525,4.2815,3.5886-3.0472,2.6677-11.9022,7.6339-35.68,7.8675-23.8228-.2336-32.2769-5.2078-35.0853-7.8409,1.7121-.5123,3.594-1.4891,4.0187-3.4294.78-3.5569-4.369-7.0845-5.4069-7.7561l-.18-.1168-.2017-.0637c-9.72-3.09-15.5651-7.5622-17.37-13.2956-2.0943-6.6465,1.9165-13.2452,3.0684-14.9493,9.76-2.5376,17.5241-2.0359,23.0823,1.4891a17.5689,17.5689,0,0,1,7.5091,10.5962c.523,5.8475,2.4182,10.052,5.6379,12.494a11.0831,11.0831,0,0,0,6.904,2.2111c1.1705,2.2933,4.2257,7.3127,8.5284,7.35,3.1029.0265,5.8-2.3783,8.2471-7.3473a11.091,11.091,0,0,0,6.8986-2.2111c3.22-2.442,5.115-6.6465,5.6379-12.494a17.5813,17.5813,0,0,1,7.5065-10.5962C316.2452,285.66,323.9932,285.156,333.7347,287.6829Z" transform="translate(-16.0869 -187.007)"/><path class="cls-3" d="M332.92,274.2519a8.3345,8.3345,0,0,1,1.1122,10.2219c-6.8589-1.72-12.8577-2.0093-17.9328-.8733a32.351,32.351,0,0,0-5.3857-8.4859,28.2094,28.2094,0,0,0-13.5558-8.7355,9.7578,9.7578,0,0,0,4.608-4.7646c1.9881-4.868-1.5448-10.0653-2.9941-11.8994.5415-1.8554,1.8633-5.1548,3.8859-6.1608a2.7811,2.7811,0,0,1,1.9191-.2123c.1938,6.0174,1.4732,7.5383,2.4474,8.1515a2.3465,2.3465,0,0,0,2.2057.21c8.3772-3.74,12.6825-.1486,12.85-.0053l.21.1884.2548.1036a11.4731,11.4731,0,0,1,3.0579,2.0252,6.4351,6.4351,0,0,1,2.2455,5.7494l-.1274.9821.82.5521c.2761.1858,6.7553,4.6477,4.0214,11.1987l-.4115,1.0007Z" transform="translate(-16.0869 -187.007)"/><path class="cls-2" d="M328.11,342.5882c1.5342,2.649,4.1249,8.4753,2.3332,11.91-1.0511,2.012-3.6046,3.1109-7.5968,3.2728a15.8515,15.8515,0,0,0-5.5529,1.2157c-1.0723.4539-3.0365,1.0776-4.1142.1619-.82-.6955-2.4526-3.4374.0531-13.85a35.445,35.445,0,0,1,13.224-2.8083C327.051,342.5006,327.5978,342.5351,328.11,342.5882Z" transform="translate(-16.0869 -187.007)"/><path class="cls-4" d="M308.2423,277.1266a29.7681,29.7681,0,0,1,4.7778,7.3791,21.2333,21.2333,0,0,0-4.0877,2.0226,20.4638,20.4638,0,0,0-8.8947,12.76l-.0186.1327c-.4273,4.9291-1.8925,8.3877-4.3558,10.2829a7.8023,7.8023,0,0,1-5.6989,1.54l-1.2183-.2283-.5176,1.136c-1.9058,4.1913-3.955,6.4979-5.7759,6.4979h-.0186c-2.7154-.0239-5.4069-4.8017-6.1342-6.474l-.5069-1.1493-1.237.215a7.8,7.8,0,0,1-5.7015-1.5369c-2.4633-1.8952-3.9285-5.3565-4.3558-10.2856l-.0186-.1327a20.4641,20.4641,0,0,0-8.8947-12.76,21.39,21.39,0,0,0-4.0877-2.0226,29.8678,29.8678,0,0,1,4.7778-7.3791,24.5136,24.5136,0,0,1,17.1046-8.5895,52.19,52.19,0,0,0,8.6612,1.1308l.3849.0053.05-.0027a52.4788,52.4788,0,0,0,8.6612-1.1307A24.5132,24.5132,0,0,1,308.2423,277.1266Zm-13.71-.4831a3.99,3.99,0,1,0-3.99,3.9895A3.9932,3.9932,0,0,0,294.5326,276.6435Zm0,9.6592a3.99,3.99,0,1,0-3.99,3.9895A3.9932,3.9932,0,0,0,294.5326,286.3027Zm0,9.6592a3.99,3.99,0,1,0-3.99,3.9868A3.9932,3.9932,0,0,0,294.5326,295.9619Zm0,8.8681a3.99,3.99,0,1,0-3.99,3.99A3.9933,3.9933,0,0,0,294.5326,304.83Zm-16.5685-28.1892a3.9895,3.9895,0,1,0-3.9895,3.9895A3.9949,3.9949,0,0,0,277.9641,276.6408Zm0,9.6592a3.9895,3.9895,0,1,0-3.9895,3.9895A3.9932,3.9932,0,0,0,277.9641,286.3Zm0,9.6592a3.9895,3.9895,0,1,0-3.9895,3.9895A3.9931,3.9931,0,0,0,277.9641,295.9592Zm0,8.8682a3.9895,3.9895,0,1,0-3.9895,3.9895A3.9949,3.9949,0,0,0,277.9641,304.8274Z" transform="translate(-16.0869 -187.007)"/><path class="cls-5" d="M305.3092,237.3989c-.0318.0637-.061.1274-.0929.1911a.8558.8558,0,0,0-.1088-.0584C305.1765,237.4891,305.2429,237.4467,305.3092,237.3989Z" transform="translate(-16.0869 -187.007)"/><path class="cls-3" d="M290.5431,272.654a3.99,3.99,0,1,1-3.9895,3.99A3.9932,3.9932,0,0,1,290.5431,272.654Zm2.1314,3.99a2.1315,2.1315,0,1,0-2.1314,2.1314A2.1331,2.1331,0,0,0,292.6745,276.6435Z" transform="translate(-16.0869 -187.007)"/><path class="cls-3" d="M290.5431,282.3132a3.9895,3.9895,0,1,1-3.9895,3.99A3.9932,3.9932,0,0,1,290.5431,282.3132Zm2.1314,3.99a2.1315,2.1315,0,1,0-2.1314,2.1314A2.1331,2.1331,0,0,0,292.6745,286.3027Z" transform="translate(-16.0869 -187.007)"/><path class="cls-3" d="M290.5431,291.9724a3.9882,3.9882,0,1,1-3.9895,3.99A3.9932,3.9932,0,0,1,290.5431,291.9724Zm2.1314,3.99a2.1315,2.1315,0,1,0-2.1314,2.1287A2.1331,2.1331,0,0,0,292.6745,295.9619Z" transform="translate(-16.0869 -187.007)"/><path class="cls-3" d="M290.5431,300.8405a3.99,3.99,0,1,1-3.9895,3.9895A3.9933,3.9933,0,0,1,290.5431,300.8405Zm2.1314,3.9895a2.1315,2.1315,0,1,0-2.1314,2.1315A2.1331,2.1331,0,0,0,292.6745,304.83Z" transform="translate(-16.0869 -187.007)"/><path class="cls-3" d="M273.9746,272.6513a3.99,3.99,0,1,1-3.99,3.99A3.9949,3.9949,0,0,1,273.9746,272.6513Zm2.1315,3.99a2.1315,2.1315,0,1,0-2.1315,2.1315A2.1348,2.1348,0,0,0,276.1061,276.6408Z" transform="translate(-16.0869 -187.007)"/><path class="cls-3" d="M273.9746,282.3105a3.9895,3.9895,0,1,1-3.99,3.99A3.9932,3.9932,0,0,1,273.9746,282.3105Zm2.1315,3.99a2.1315,2.1315,0,1,0-2.1315,2.1315A2.1331,2.1331,0,0,0,276.1061,286.3Z" transform="translate(-16.0869 -187.007)"/><path class="cls-3" d="M273.9746,291.97a3.99,3.99,0,1,1-3.99,3.99A3.9931,3.9931,0,0,1,273.9746,291.97Zm2.1315,3.99a2.1315,2.1315,0,1,0-2.1315,2.1314A2.1331,2.1331,0,0,0,276.1061,295.9592Z" transform="translate(-16.0869 -187.007)"/><path class="cls-3" d="M273.9746,300.8379a3.99,3.99,0,1,1-3.99,3.99A3.9949,3.9949,0,0,1,273.9746,300.8379Zm2.1315,3.99a2.1315,2.1315,0,1,0-2.1315,2.1314A2.1349,2.1349,0,0,0,276.1061,304.8274Z" transform="translate(-16.0869 -187.007)"/><path class="cls-3" d="M262.752,261.6119a9.7633,9.7633,0,0,0,4.6053,4.7646,28.2335,28.2335,0,0,0-13.5557,8.7354,32.318,32.318,0,0,0-5.3831,8.486c-5.0751-1.1361-11.0739-.8468-17.9328.8733a8.3288,8.3288,0,0,1,1.1069-10.214l.783-.7565-.4194-1.006c-2.7339-6.5509,3.7427-11.0129,4.0161-11.196l.8281-.5521-.13-.9848c-.7008-5.2423,5.0565-7.6711,5.2981-7.7719l.2495-.0929.21-.1885c.1778-.1566,4.4832-3.7479,12.86-.008a2.3464,2.3464,0,0,0,2.2058-.21c.9741-.6105,2.2535-2.1341,2.4473-8.1515a2.7718,2.7718,0,0,1,1.9164.2124c2.0253,1.006,3.35,4.308,3.8886,6.1607C264.2969,251.5466,260.7639,256.7438,262.752,261.6119Z" transform="translate(-16.0869 -187.007)"/><path class="cls-2" d="M256.7665,242.9067c-.085,3.594-.5468,5.0592-.8149,5.6113-5.8529-2.4367-10.1476-1.805-12.7409-.8229-.0637-.1115-.1248-.2176-.1885-.3318-3.5595-6.2934-8.9372-15.804-14.7794-18.461l-.0584-.0239a67.0668,67.0668,0,0,0-14.3229-3.9709c-6.4023-.9794-11.3686-.5494-14.7608,1.2768l-.0345.0185a93.6659,93.6659,0,0,0-10.7979,7.2889l-.0664.0531c-4.1036,3.517-6.6571,7.9922-8.616,11.91l-.0186.0371c-3.6683,7.8622-3.4506,17.1577.6132,26.1772l.0159.0319c3.4878,7.318,9.6273,12.72,16.6136,14.6971-.1009,1.4174-.1885,3.6365-.1885,6.3094-21.4047.6928-32.0407-11.8172-36.4867-19.3635a23.3039,23.3039,0,0,1-2.8826-7.8144c-5.6618-32.0274-15.6182-53.0233-17.5559-56.9066a11.5847,11.5847,0,0,1-.7114-1.7147,12.1857,12.1857,0,0,1-.4937-2.5057,12.8764,12.8764,0,0,1,3.6444-10.6228,13.4147,13.4147,0,0,1,11.18-3.48c26.61,3.095,53.44,17.3382,71.2613,28.744A286.5732,286.5732,0,0,1,256.7665,242.9067Z" transform="translate(-16.0869 -187.007)"/><path class="cls-5" d="M254.3829,196.0972a.6813.6813,0,0,1,.0106.0717,2.372,2.372,0,0,0-.3584.0982l-.0292-.016A3.6066,3.6066,0,0,1,254.3829,196.0972Z" transform="translate(-16.0869 -187.007)"/><path class="cls-2" d="M251.2852,345.2956c2.5057,10.413.8707,13.1576.0531,13.8531-1.08.9131-3.0419.2893-4.1142-.1646a15.9225,15.9225,0,0,0-5.5529-1.213c-3.9922-.1619-6.5457-1.2635-7.5968-3.2755-1.7917-3.4347.799-9.261,2.3332-11.91.51-.0531,1.0591-.0876,1.6537-.0982A35.562,35.562,0,0,1,251.2852,345.2956Z" transform="translate(-16.0869 -187.007)"/><path class="cls-2" d="M241.7641,374.4245a11.8691,11.8691,0,0,0,2.23.8361c-17.2108,23.1619-39.6056,19.2839-48.6144,16.4517a43.9017,43.9017,0,0,1-26.5462-22.7611,33.2067,33.2067,0,0,1-2.0545-24.1068c1.9085-6.6306,5.8078-13.3514,11.5889-19.9687a102.0878,102.0878,0,0,1,19.3158-16.77,40.3906,40.3906,0,0,0,2.8109,10.3387l.2389-.1088c7.4269,19.05,14.4131,25.1287,17.0516,26.8541-.9821,2.97-3.06,10.9518.2787,17.6779,2.15,4.3293,6.105,7.2889,11.7561,8.7966a32.6048,32.6048,0,0,0,4.523.7724c.9211.1114,1.7917.215,2.6437.3742A18.0986,18.0986,0,0,1,241.7641,374.4245Z" transform="translate(-16.0869 -187.007)"/><path class="cls-3" d="M222.01,331.0046a9.4445,9.4445,0,0,1,.3928,5.5025,18.2751,18.2751,0,0,1-3.0233,6.4686c-.04.0027-.08.0027-.1194.0053-1.9483-1.2741-8.2046-6.4315-15.1511-23.353a50.7694,50.7694,0,0,1,6.5988,2.158C214.8781,323.4954,220.2214,326.4842,222.01,331.0046Z" transform="translate(-16.0869 -187.007)"/><path class="cls-3" d="M190.2431,235.9894c.3132-.2389.6185-.47.9237-.7007a54.172,54.172,0,0,0-3.3816,7.1508,21.984,21.984,0,0,0-1.2608,11.9552c1.68,9.7468,1.5236,16.7251-.4274,19.1512a2.5283,2.5283,0,0,1-.7671.6582,27.1289,27.1289,0,0,1-2.2509-3.8594c-3.6683-8.1489-3.8913-16.4862-.6344-23.4857C184.3451,243.0633,186.604,239.1189,190.2431,235.9894Z" transform="translate(-16.0869 -187.007)"/><path class="cls-1" d="M32.2261,418.209,43.09,449.4824h.1255L54.2686,418.209H69.9678v.8789H64.19V462.042h5.7774v.88H49.37v-.88H55.085V419.0879h-.126l-15.4483,43.834H38.5059l-15.5113-43.834h-.1255V462.042h5.7774v.88h-12.56v-.88h5.7774V419.0879H16.0869v-.8789Z" transform="translate(-16.0869 -187.007)"/><path class="cls-1" d="M100.645,463.4873a21.1028,21.1028,0,0,1-3.1084.251,8.0308,8.0308,0,0,1-4.7412-1.1309,4.841,4.841,0,0,1-1.9155-3.14h-.1255a6.0787,6.0787,0,0,1-2.7632,3.3906,11.6869,11.6869,0,0,1-5.0864.88,15.6881,15.6881,0,0,1-3.0772-.3145,10.6864,10.6864,0,0,1-2.8891-1.0049,5.6942,5.6942,0,0,1-2.1348-1.915,5.251,5.251,0,0,1-.8164-2.9834,5.9048,5.9048,0,0,1,.7222-3.0449,6.8218,6.8218,0,0,1,1.8838-2.0723,10.507,10.507,0,0,1,2.6377-1.3818q1.4744-.5333,3.0454-1.0361,2.5745-.7545,4.1762-1.2872a10.2876,10.2876,0,0,0,2.48-1.1308,3.365,3.365,0,0,0,1.2246-1.3506,4.7077,4.7077,0,0,0,.3452-1.9463V440.44a5.9455,5.9455,0,0,0-.8159-3.0772,3.2735,3.2735,0,0,0-3.0771-1.3809,4.6826,4.6826,0,0,0-2.5122.6592,2.61,2.61,0,0,0-1.0674,2.418,5.8226,5.8226,0,0,0,.0625.6592q.0622.47.126,1.0361.0615.5655.1254,1.0674a6.9221,6.9221,0,0,1,.0625.69,2.2612,2.2612,0,0,1-.4394,1.4766,2.6726,2.6726,0,0,1-1.0361.7842,3.6447,3.6447,0,0,1-1.2559.2832c-.4395.0214-.8066.0312-1.0991.0312a8.9889,8.9889,0,0,1-1.2871-.0947,2.683,2.683,0,0,1-1.1621-.44,2.7487,2.7487,0,0,1-.8477-.9726,3.5244,3.5244,0,0,1-.3452-1.6963,4.932,4.932,0,0,1,.9106-2.92,7.2552,7.2552,0,0,1,2.4175-2.1348,12.7877,12.7877,0,0,1,3.4224-1.2881,17.8366,17.8366,0,0,1,3.9878-.4394,25.4928,25.4928,0,0,1,4.49.3769,9.7338,9.7338,0,0,1,3.6421,1.3819,7.2155,7.2155,0,0,1,2.4492,2.7314,9.3139,9.3139,0,0,1,.9107,4.3643V459.53a5.8963,5.8963,0,0,0,.3452,2.1035q.3448.9111,1.727.9111a2.6252,2.6252,0,0,0,1.35-.3144,4.3894,4.3894,0,0,0,1.0366-.8789l.565.5654A3.5518,3.5518,0,0,1,100.645,463.4873Zm-10.2676-16.14a1.877,1.877,0,0,1-.4707.7216,4.9032,4.9032,0,0,1-1.2246.7852q-1.1939.5654-2.3862,1.1a8.6148,8.6148,0,0,0-2.1353,1.35,6.4355,6.4355,0,0,0-1.5385,2.01,6.8762,6.8762,0,0,0-.5967,3.0771q0,.753.0942,1.7588a6.3245,6.3245,0,0,0,.5025,1.9463,4.1478,4.1478,0,0,0,1.2246,1.6016,3.5015,3.5015,0,0,0,2.2607.6591,3.67,3.67,0,0,0,1.6011-.3769,4.08,4.08,0,0,0,1.4131-1.1611,5.994,5.994,0,0,0,1.0049-2.0733,11.1771,11.1771,0,0,0,.3764-3.1084v-8.289Z" transform="translate(-16.0869 -187.007)"/><path class="cls-1" d="M117.38,435.9814v5.2745h.1255a12.9476,12.9476,0,0,1,3.0459-4.1133,7.2646,7.2646,0,0,1,5.0551-1.7266,6.2935,6.2935,0,0,1,4.27,1.4131,4.917,4.917,0,0,1,1.6329,3.9248,4.4067,4.4067,0,0,1-.9107,2.9512,3.6356,3.6356,0,0,1-2.92,1.0674,5.8011,5.8011,0,0,1-2.6372-.5967,2.2557,2.2557,0,0,1-1.1934-2.2285,5.731,5.731,0,0,1,.063-.66c.041-.3135.0943-.6484.1568-1.0039s.1147-.6807.1572-.9736c.041-.293.0625-.46.0625-.503a2.8981,2.8981,0,0,0-.188-.7841,1.3351,1.3351,0,0,0-.4082-.503,1.3687,1.3687,0,0,0-.8481-.22,3.1492,3.1492,0,0,0-1.57.5967,6.5236,6.5236,0,0,0-1.7583,1.7265,11.496,11.496,0,0,0-1.4131,2.7325,10.2709,10.2709,0,0,0-.5966,3.61V462.042h4.9614v.88H105.7627v-.88h4.082V436.86h-4.082v-.879Z" transform="translate(-16.0869 -187.007)"/><path class="cls-1" d="M144.4463,435.9814V462.042h4.2075v.88H132.5771v-.88h4.2076V436.86h-4.2076v-.879ZM137.4756,419.34a4.3964,4.3964,0,1,1-1.3189,3.14A4.2836,4.2836,0,0,1,137.4756,419.34Z" transform="translate(-16.0869 -187.007)"/><path class="cls-1" d="M151.2905,436.86v-.879h11.6807v4.6465h.1255q1.946-5.5254,7.41-5.5263a12.7619,12.7619,0,0,1,6.2173,1.413,13.5976,13.5976,0,0,1,4.2388,3.5479,14.625,14.625,0,0,1,2.4492,4.6475,15.8445,15.8445,0,0,1,.7847,4.71,14.8573,14.8573,0,0,1-3.7993,9.9531,13.5836,13.5836,0,0,1-4.3018,3.1719,12.8715,12.8715,0,0,1-5.5889,1.1934,6.7174,6.7174,0,0,1-4.6469-1.57,9.9051,9.9051,0,0,1-2.6377-3.7676h-.1255v21.1631h4.27v.8789H151.2905v-.8789h4.1446V436.86Zm11.9629,16.9238a15.6,15.6,0,0,0,.9107,4.3965,8.4868,8.4868,0,0,0,2.23,3.3906,5.8621,5.8621,0,0,0,4.1132,1.3506,3.9977,3.9977,0,0,0,2.7945-.9424,5.8528,5.8528,0,0,0,1.57-2.7,18.9144,18.9144,0,0,0,.69-4.2393q.156-2.48.1572-5.5576a60.513,60.513,0,0,0-.2827-6.374,14.4786,14.4786,0,0,0-.9731-4.1758,4.9875,4.9875,0,0,0-1.7588-2.2607,4.8845,4.8845,0,0,0-2.7-.69,5.1424,5.1424,0,0,0-3.7051,1.3184,8.1832,8.1832,0,0,0-2.0722,3.3281,18.7351,18.7351,0,0,0-.9107,4.3965q-.22,2.3862-.22,4.458Q163.0967,451.4306,163.2534,453.7842Z" transform="translate(-16.0869 -187.007)"/><path class="cls-1" d="M209.3467,436.2637a16.0436,16.0436,0,0,1,4.8667,3.1084,14.0332,14.0332,0,0,1,3.2344,4.5527,13.7263,13.7263,0,0,1,0,11.0527,14.0028,14.0028,0,0,1-3.2344,4.5528,15.5141,15.5141,0,0,1-4.8667,3.0771,16.8022,16.8022,0,0,1-12.12,0A15.5016,15.5016,0,0,1,192.36,459.53a13.9864,13.9864,0,0,1-3.2344-4.5528,13.7263,13.7263,0,0,1,0-11.0527,14.0167,14.0167,0,0,1,3.2344-4.5527,16.03,16.03,0,0,1,4.8667-3.1084,16.3818,16.3818,0,0,1,12.12,0Zm-2.23,25.4961a6.833,6.833,0,0,0,2.041-3.0459,16.2924,16.2924,0,0,0,.8164-4.333q.156-2.4493.1572-4.961t-.1572-4.93a16.2168,16.2168,0,0,0-.8164-4.3017,6.838,6.838,0,0,0-2.041-3.0459,6.8987,6.8987,0,0,0-7.6611,0,6.8308,6.8308,0,0,0-2.0411,3.0459,16.1809,16.1809,0,0,0-.8164,4.3017q-.1574,2.4185-.1572,4.93t.1572,4.961a16.2567,16.2567,0,0,0,.8164,4.333,6.8259,6.8259,0,0,0,2.0411,3.0459,6.8942,6.8942,0,0,0,7.6611,0Z" transform="translate(-16.0869 -187.007)"/><path class="cls-1" d="M223.6333,453.8154q.7536,1.7593,1.5386,3.3916a13.3672,13.3672,0,0,0,1.8525,2.8887,8.4738,8.4738,0,0,0,2.5752,2.041,7.9443,7.9443,0,0,0,3.7051.7852q.5647,0,1.5068-.0635a4.6784,4.6784,0,0,0,1.8526-.5332,4.2866,4.2866,0,0,0,1.57-1.4443,4.9683,4.9683,0,0,0,.6592-2.795,4.5784,4.5784,0,0,0-.1568-1.1611,3.3813,3.3813,0,0,0-.66-1.2246,5.6964,5.6964,0,0,0-1.4755-1.2246,15.7159,15.7159,0,0,0-2.669-1.2246l-5.0869-1.8848a14.1336,14.1336,0,0,1-1.8838-.8476,7.3183,7.3183,0,0,1-1.8525-1.4131,7.5437,7.5437,0,0,1-1.4131-2.1035,6.9159,6.9159,0,0,1-.565-2.92,8.15,8.15,0,0,1,.7535-3.4541,8.8061,8.8061,0,0,1,2.1035-2.8574,10.0988,10.0988,0,0,1,3.2656-1.9463,11.7467,11.7467,0,0,1,4.1763-.7226,9.4732,9.4732,0,0,1,2.2295.2519q1.0356.2505,1.8838.5332t1.5073.5342a3.1282,3.1282,0,0,0,1.0361.251c.46,0,.7534-.083.8789-.251a2.47,2.47,0,0,0,.314-.5654h.8794v7.6611h-.8164q-.6285-1.5073-1.2876-2.8887a10.5192,10.5192,0,0,0-1.57-2.4179,6.498,6.498,0,0,0-2.23-1.6329,7.9389,7.9389,0,0,0-3.2652-.5957,6.9354,6.9354,0,0,0-3.7993,1.0987,3.5921,3.5921,0,0,0-1.727,3.2344,4.6512,4.6512,0,0,0,.1254,1.0048,3.1267,3.1267,0,0,0,.565,1.1612,5.0386,5.0386,0,0,0,1.3818,1.1933,12.967,12.967,0,0,0,2.5117,1.1621l5.3379,1.8213a12.2927,12.2927,0,0,1,5.15,3.14,7.1225,7.1225,0,0,1,1.7583,4.9609,7.6575,7.6575,0,0,1-.9106,3.7363,9.1488,9.1488,0,0,1-2.3862,2.8262,10.8525,10.8525,0,0,1-3.4229,1.79,13.0313,13.0313,0,0,1-4.019.6279,13.2716,13.2716,0,0,1-2.4493-.251q-1.3184-.252-2.5434-.5967t-2.229-.5967a6.9911,6.9911,0,0,0-1.57-.2519,1.1085,1.1085,0,0,0-.7222.1885,1.7088,1.7088,0,0,0-.4082.6914h-.8789v-9.1065Z" transform="translate(-16.0869 -187.007)"/><path class="cls-1" d="M275.2852,463.4873a21.1038,21.1038,0,0,1-3.1084.251,8.0309,8.0309,0,0,1-4.7413-1.1309,4.8418,4.8418,0,0,1-1.9155-3.14h-.1255a6.0787,6.0787,0,0,1-2.7632,3.3906,11.6863,11.6863,0,0,1-5.0864.88,15.6871,15.6871,0,0,1-3.0771-.3145,10.6859,10.6859,0,0,1-2.8892-1.0049,5.6942,5.6942,0,0,1-2.1348-1.915,5.251,5.251,0,0,1-.8164-2.9834,5.9058,5.9058,0,0,1,.7222-3.0449,6.8231,6.8231,0,0,1,1.8838-2.0723,10.507,10.507,0,0,1,2.6377-1.3818q1.4744-.5333,3.0454-1.0361,2.5745-.7545,4.1763-1.2872a10.2866,10.2866,0,0,0,2.48-1.1308,3.3646,3.3646,0,0,0,1.2247-1.3506,4.7093,4.7093,0,0,0,.3452-1.9463V440.44a5.9455,5.9455,0,0,0-.816-3.0772,3.2735,3.2735,0,0,0-3.0771-1.3809,4.6826,4.6826,0,0,0-2.5122.6592,2.61,2.61,0,0,0-1.0674,2.418,5.8226,5.8226,0,0,0,.0625.6592q.0623.47.126,1.0361.0615.5655.1255,1.0674c.041.3359.0625.5654.0625.69a2.2612,2.2612,0,0,1-.44,1.4766,2.6712,2.6712,0,0,1-1.0361.7842,3.6437,3.6437,0,0,1-1.2559.2832c-.4394.0214-.8066.0312-1.0991.0312a8.991,8.991,0,0,1-1.2871-.0947,2.684,2.684,0,0,1-1.1621-.44,2.7487,2.7487,0,0,1-.8477-.9726,3.5256,3.5256,0,0,1-.3452-1.6963,4.9314,4.9314,0,0,1,.9107-2.92,7.2548,7.2548,0,0,1,2.4174-2.1348,12.789,12.789,0,0,1,3.4224-1.2881,17.838,17.838,0,0,1,3.9878-.4394,25.4928,25.4928,0,0,1,4.49.3769,9.7325,9.7325,0,0,1,3.6421,1.3819,7.2155,7.2155,0,0,1,2.4492,2.7314,9.3139,9.3139,0,0,1,.9107,4.3643V459.53a5.8963,5.8963,0,0,0,.3452,2.1035q.345.9111,1.7271.9111a2.6257,2.6257,0,0,0,1.35-.3144,4.3933,4.3933,0,0,0,1.0366-.8789l.5649.5654A3.5518,3.5518,0,0,1,275.2852,463.4873Zm-10.2676-16.14a1.8782,1.8782,0,0,1-.4707.7216,4.9071,4.9071,0,0,1-1.2246.7852q-1.1938.5654-2.3863,1.1a8.6124,8.6124,0,0,0-2.1352,1.35,6.4373,6.4373,0,0,0-1.5386,2.01,6.8776,6.8776,0,0,0-.5967,3.0771q0,.753.0943,1.7588a6.3272,6.3272,0,0,0,.5024,1.9463,4.1478,4.1478,0,0,0,1.2246,1.6016,3.5018,3.5018,0,0,0,2.2608.6591,3.67,3.67,0,0,0,1.601-.3769,4.078,4.078,0,0,0,1.4131-1.1611,5.994,5.994,0,0,0,1.0049-2.0733,11.1731,11.1731,0,0,0,.3765-3.1084v-8.289Z" transform="translate(-16.0869 -187.007)"/><path class="cls-1" d="M313.0576,418.209v.8789h-4.584l11.3037,33.0947h.126l6.5938-18.7138-4.8985-14.3809H318.208v-.8789h18.7764v.8789h-5.8408l11.3671,33.1582h.125l11.6182-33.1582h-5.4v-.8789h11.5547v.8789h-5.0869l-16.1387,45.5293h-1.8213l-10.2988-29.7041h-.126l-10.55,29.7041h-1.8213l-15.5742-45.5293h-5.1494v-.8789Z" transform="translate(-16.0869 -187.007)"/><path class="cls-1" d="M369.5762,449.9854q0,2.26.1884,4.5527a12.802,12.802,0,0,0,1.0049,4.1445,7.6028,7.6028,0,0,0,2.3867,3.0459,7.1221,7.1221,0,0,0,4.3956,1.1934,8.7589,8.7589,0,0,0,4.2392-.9424,10.5128,10.5128,0,0,0,2.8252-2.166,9.4527,9.4527,0,0,0,1.6328-2.418,6.82,6.82,0,0,0,.5967-1.7588l.88.3145a11.032,11.032,0,0,1-1.0684,2.5429,9.5381,9.5381,0,0,1-2.0722,2.5118,11.24,11.24,0,0,1-3.2657,1.9472,12.6166,12.6166,0,0,1-4.71.7852,18.589,18.589,0,0,1-6.0908-.9737,14.5131,14.5131,0,0,1-4.93-2.8261,12.9849,12.9849,0,0,1-3.2969-4.5215,14.6875,14.6875,0,0,1-1.1934-6.06,13.0145,13.0145,0,0,1,1.13-5.2754,14.7915,14.7915,0,0,1,3.1094-4.5527,15.8363,15.8363,0,0,1,4.6465-3.2031,13.6112,13.6112,0,0,1,5.7461-1.2246,14.591,14.591,0,0,1,4.3965.6914,11.7129,11.7129,0,0,1,3.956,2.1347,11.126,11.126,0,0,1,2.8887,3.7364,12.3131,12.3131,0,0,1,1.13,5.4951H369.5762Zm10.0478-7.9131q0-.69-.0625-1.6953a6.9558,6.9558,0,0,0-.4394-2.01,3.957,3.957,0,0,0-1.2246-1.6953,3.6337,3.6337,0,0,0-2.3555-.69,4.8919,4.8919,0,0,0-3.2969,1.004,6.0551,6.0551,0,0,0-1.7265,2.5439,12.8639,12.8639,0,0,0-.7227,3.3281q-.1568,1.79-.22,3.4229H379.624Z" transform="translate(-16.0869 -187.007)"/><path class="cls-1" d="M403.6758,417.6436V462.042h4.208v.88H391.8066v-.88h4.208V418.5234h-4.208v-.88Z" transform="translate(-16.0869 -187.007)"/><path class="cls-1" d="M422.7031,417.6436V462.042h4.208v.88H410.834v-.88h4.208V418.5234h-4.208v-.88Z" transform="translate(-16.0869 -187.007)"/><path class="cls-1" d="M434.3828,462.042V436.86h-4.1445v-.879h11.6806v6.2793h.126q.249-.5653.8789-1.7265a9.2676,9.2676,0,0,1,1.8213-2.292,10.9772,10.9772,0,0,1,3.0772-1.9785,11.48,11.48,0,0,1,4.71-.8477,8.5091,8.5091,0,0,1,6.4366,2.3858,9.041,9.041,0,0,1,2.2919,6.5312v17.709h4.2081v.88H449.7061v-.88H453.6V442.1982a5.7946,5.7946,0,0,0-1.0674-3.8623,3.64,3.64,0,0,0-2.8886-1.2246,6.1578,6.1578,0,0,0-2.89.7227,6.94,6.94,0,0,0-2.417,2.166,11.8128,11.8128,0,0,0-1.664,3.58,17.8883,17.8883,0,0,0-.628,5.0234V462.042h3.9561v.88H430.2383v-.88Z" transform="translate(-16.0869 -187.007)"/><path class="cls-1" d="M477.085,449.9854q0,2.26.1884,4.5527a12.802,12.802,0,0,0,1.0049,4.1445,7.6028,7.6028,0,0,0,2.3867,3.0459,7.1232,7.1232,0,0,0,4.3965,1.1934A8.755,8.755,0,0,0,489.3,461.98a10.5184,10.5184,0,0,0,2.8262-2.166,9.5048,9.5048,0,0,0,1.6328-2.418,6.7673,6.7673,0,0,0,.5957-1.7588l.8789.3145a11.0236,11.0236,0,0,1-1.0664,2.5429,9.5582,9.5582,0,0,1-2.0723,2.5118,11.2527,11.2527,0,0,1-3.2656,1.9472,12.6258,12.6258,0,0,1-4.7109.7852,18.59,18.59,0,0,1-6.0909-.9737,14.5136,14.5136,0,0,1-4.93-2.8261,12.9849,12.9849,0,0,1-3.2969-4.5215,14.6875,14.6875,0,0,1-1.1934-6.06,13.0145,13.0145,0,0,1,1.13-5.2754,14.79,14.79,0,0,1,3.1094-4.5527,15.8363,15.8363,0,0,1,4.6465-3.2031,13.6112,13.6112,0,0,1,5.7461-1.2246,14.59,14.59,0,0,1,4.3964.6914,11.7273,11.7273,0,0,1,3.9571,2.1347,11.1512,11.1512,0,0,1,2.8886,3.7364,12.3391,12.3391,0,0,1,1.129,5.4951H477.085Zm10.0488-7.9131q0-.69-.0625-1.6953a6.96,6.96,0,0,0-.4414-2.01,3.9242,3.9242,0,0,0-1.2246-1.6953,3.6289,3.6289,0,0,0-2.3545-.69,4.8919,4.8919,0,0,0-3.2969,1.004,6.0562,6.0562,0,0,0-1.7266,2.5439,12.868,12.868,0,0,0-.7226,3.3281q-.1568,1.79-.22,3.4229h10.0488Z" transform="translate(-16.0869 -187.007)"/><path class="cls-1" d="M500.6982,453.8154q.753,1.7593,1.5381,3.3916a13.3713,13.3713,0,0,0,1.8526,2.8887,8.48,8.48,0,0,0,2.5752,2.041,7.9464,7.9464,0,0,0,3.705.7852q.5655,0,1.5069-.0635a4.678,4.678,0,0,0,1.8525-.5332,4.2812,4.2812,0,0,0,1.57-1.4443,4.9675,4.9675,0,0,0,.6592-2.795,4.557,4.557,0,0,0-.1572-1.1611,3.3642,3.3642,0,0,0-.6592-1.2246,5.7039,5.7039,0,0,0-1.4756-1.2246,15.7144,15.7144,0,0,0-2.6689-1.2246l-5.0869-1.8848a14.0938,14.0938,0,0,1-1.8838-.8476,7.3364,7.3364,0,0,1-1.8526-1.4131,7.548,7.548,0,0,1-1.4131-2.1035,6.9174,6.9174,0,0,1-.5654-2.92,8.1591,8.1591,0,0,1,.7539-3.4541,8.8,8.8,0,0,1,2.1035-2.8574,10.1035,10.1035,0,0,1,3.2657-1.9463,11.7429,11.7429,0,0,1,4.1757-.7226,9.47,9.47,0,0,1,2.23.2519q1.0371.2505,1.8838.5332.8483.2827,1.5078.5342a3.1319,3.1319,0,0,0,1.0362.251c.46,0,.7539-.083.8789-.251a2.4709,2.4709,0,0,0,.3144-.5654h.8789v7.6611h-.8164q-.6284-1.5073-1.2871-2.8887a10.5173,10.5173,0,0,0-1.57-2.4179,6.5018,6.5018,0,0,0-2.23-1.6329,7.9379,7.9379,0,0,0-3.2656-.5957,6.9344,6.9344,0,0,0-3.7988,1.0987,3.5924,3.5924,0,0,0-1.7276,3.2344,4.6805,4.6805,0,0,0,.126,1.0048,3.1066,3.1066,0,0,0,.5654,1.1612,5.0255,5.0255,0,0,0,1.3809,1.1933,13.002,13.002,0,0,0,2.5127,1.1621l5.3379,1.8213a12.2919,12.2919,0,0,1,5.1494,3.14,7.1245,7.1245,0,0,1,1.7578,4.9609,7.6562,7.6562,0,0,1-.91,3.7363,9.1435,9.1435,0,0,1-2.3867,2.8262,10.8527,10.8527,0,0,1-3.4219,1.79,13.0387,13.0387,0,0,1-4.0195.6279,13.2629,13.2629,0,0,1-2.4492-.251q-1.3184-.252-2.543-.5967t-2.23-.5967a6.9862,6.9862,0,0,0-1.57-.2519,1.1064,1.1064,0,0,0-.7217.1885,1.6932,1.6932,0,0,0-.4082.6914h-.88v-9.1065Z" transform="translate(-16.0869 -187.007)"/><path class="cls-1" d="M526.6963,453.8154q.7529,1.7593,1.5381,3.3916a13.3672,13.3672,0,0,0,1.8525,2.8887,8.48,8.48,0,0,0,2.5752,2.041,7.9472,7.9472,0,0,0,3.7051.7852q.5653,0,1.5068-.0635a4.6784,4.6784,0,0,0,1.8526-.5332,4.2827,4.2827,0,0,0,1.57-1.4443,4.9683,4.9683,0,0,0,.6592-2.795,4.5572,4.5572,0,0,0-.1573-1.1611A3.3642,3.3642,0,0,0,541.14,455.7a5.7049,5.7049,0,0,0-1.4755-1.2246,15.72,15.72,0,0,0-2.669-1.2246l-5.0869-1.8848a14.1052,14.1052,0,0,1-1.8838-.8476,7.3359,7.3359,0,0,1-1.8525-1.4131,7.5437,7.5437,0,0,1-1.4131-2.1035,6.9158,6.9158,0,0,1-.5654-2.92,8.1576,8.1576,0,0,1,.7539-3.4541,8.7989,8.7989,0,0,1,2.1035-2.8574,10.1041,10.1041,0,0,1,3.2656-1.9463,11.7439,11.7439,0,0,1,4.1758-.7226,9.4707,9.4707,0,0,1,2.23.2519q1.0371.2505,1.8838.5332t1.5078.5342a3.1309,3.1309,0,0,0,1.0361.251c.46,0,.7539-.083.8789-.251a2.4712,2.4712,0,0,0,.3145-.5654h.8789v7.6611h-.8164q-.6285-1.5073-1.2871-2.8887a10.5206,10.5206,0,0,0-1.57-2.4179,6.5027,6.5027,0,0,0-2.23-1.6329,7.9381,7.9381,0,0,0-3.2657-.5957,6.9349,6.9349,0,0,0-3.7988,1.0987,3.5925,3.5925,0,0,0-1.7275,3.2344,4.6862,4.6862,0,0,0,.1259,1.0048,3.1069,3.1069,0,0,0,.5655,1.1612,5.0249,5.0249,0,0,0,1.3808,1.1933,13.0048,13.0048,0,0,0,2.5127,1.1621l5.3379,1.8213a12.2906,12.2906,0,0,1,5.1494,3.14,7.1245,7.1245,0,0,1,1.7578,4.9609,7.6572,7.6572,0,0,1-.91,3.7363A9.1435,9.1435,0,0,1,544.06,461.32a10.8527,10.8527,0,0,1-3.4219,1.79,13.0391,13.0391,0,0,1-4.0195.6279,13.2648,13.2648,0,0,1-2.4493-.251q-1.3184-.252-2.5429-.5967t-2.23-.5967a6.987,6.987,0,0,0-1.57-.2519,1.106,1.106,0,0,0-.7217.1885,1.6921,1.6921,0,0,0-.4082.6914h-.88v-9.1065Z" transform="translate(-16.0869 -187.007)"/><path class="cls-1" d="M73.1279,479.9473v.4882h-3.21v23.8633h3.21v.4883H61.65v-.4883h3.2095V480.4355H61.65v-.4882Z" transform="translate(-16.0869 -187.007)"/><path class="cls-1" d="M77.8379,504.2988v-13.99H75.5352V489.82h6.4892v3.4883h.07q.1384-.3135.4883-.959a5.1612,5.1612,0,0,1,1.0117-1.2734,6.0775,6.0775,0,0,1,1.71-1.0987,6.3748,6.3748,0,0,1,2.6167-.4716,4.7266,4.7266,0,0,1,3.5762,1.3261A5.02,5.02,0,0,1,92.77,494.46v9.8388h2.3374v.4883H86.3506v-.4883h2.1631V493.2744a3.2169,3.2169,0,0,0-.5933-2.1455,2.02,2.02,0,0,0-1.605-.6807,3.4158,3.4158,0,0,0-1.6045.4014,3.863,3.863,0,0,0-1.3432,1.2031,6.569,6.569,0,0,0-.9248,1.9893,9.9308,9.9308,0,0,0-.3487,2.791v7.4658H84.292v.4883H75.5352v-.4883Z" transform="translate(-16.0869 -187.007)"/><path class="cls-1" d="M100.2178,485.668a4.1242,4.1242,0,0,0,2.1279,0,8.5437,8.5437,0,0,0,1.0645-.3487v4.501h4.0815v.4883H103.41v11.6875a6.3806,6.3806,0,0,0,.0693.9766,2.6058,2.6058,0,0,0,.2617.82,1.399,1.399,0,0,0,.5586.5752,1.92,1.92,0,0,0,.959.21,2.1823,2.1823,0,0,0,1.1343-.2793,2.999,2.999,0,0,0,.82-.7158,3.9883,3.9883,0,0,0,.5757-.9941,9.1772,9.1772,0,0,0,.3662-1.0811l.5234.1045a4.6815,4.6815,0,0,1-.7153,1.9014,3.7983,3.7983,0,0,1-1.1514,1.0986,3.9381,3.9381,0,0,1-1.3779.5059,8.4409,8.4409,0,0,1-1.3955.122,7.47,7.47,0,0,1-2.8086-.4179,3.45,3.45,0,0,1-1.4653-1.0469,2.6558,2.6558,0,0,1-.5411-1.36q-.07-.7323-.0693-1.3613V490.3086H96.8159V489.82h2.3379v-4.501A8.4775,8.4775,0,0,0,100.2178,485.668Z" transform="translate(-16.0869 -187.007)"/><path class="cls-1" d="M114.0508,497.6006q0,1.2554.1045,2.5293a7.1266,7.1266,0,0,0,.5581,2.3027,4.2238,4.2238,0,0,0,1.3257,1.6914,3.9556,3.9556,0,0,0,2.4423.6631,4.8673,4.8673,0,0,0,2.355-.5234,5.85,5.85,0,0,0,1.57-1.2032,5.2709,5.2709,0,0,0,.9073-1.3437,3.8042,3.8042,0,0,0,.3315-.9766l.4883.1739a6.14,6.14,0,0,1-.5933,1.413,5.2969,5.2969,0,0,1-1.1513,1.3956,6.2558,6.2558,0,0,1-1.814,1.082,7.0161,7.0161,0,0,1-2.6167.4355,10.3307,10.3307,0,0,1-3.3843-.54,8.0607,8.0607,0,0,1-2.7383-1.57,7.2233,7.2233,0,0,1-1.832-2.5117,8.1694,8.1694,0,0,1-.6626-3.3672,7.2226,7.2226,0,0,1,.628-2.9307,8.2223,8.2223,0,0,1,1.727-2.5293,8.8161,8.8161,0,0,1,2.5815-1.7793,7.5675,7.5675,0,0,1,3.1924-.68,8.1081,8.1081,0,0,1,2.4419.3838,6.5154,6.5154,0,0,1,2.1983,1.1856,6.1822,6.1822,0,0,1,1.6049,2.0761,6.8434,6.8434,0,0,1,.628,3.0528h-10.292Zm5.582-4.3965q0-.3838-.0351-.9414a3.8675,3.8675,0,0,0-.2442-1.1172,2.1922,2.1922,0,0,0-.68-.9414,2.0157,2.0157,0,0,0-1.3086-.3838,2.7212,2.7212,0,0,0-1.8315.5576,3.3707,3.3707,0,0,0-.9595,1.4131,7.15,7.15,0,0,0-.4008,1.85q-.0879.9946-.1221,1.9014h5.582Z" transform="translate(-16.0869 -187.007)"/><path class="cls-1" d="M137.6519,502.5713a5.87,5.87,0,0,1,2.1108.89,4.64,4.64,0,0,1,1.4653,1.6924,5.7124,5.7124,0,0,1,.5581,2.669,6.6246,6.6246,0,0,1-.5581,2.6513,6.88,6.88,0,0,1-1.64,2.3028,8.5217,8.5217,0,0,1-2.5991,1.64,9.0126,9.0126,0,0,1-3.4717.6279,10.2862,10.2862,0,0,1-3.5064-.4882,5.7048,5.7048,0,0,1-2.0058-1.169,3.2684,3.2684,0,0,1-.9073-1.3955,4.4231,4.4231,0,0,1-.2089-1.2031,3.3133,3.3133,0,0,1,.4184-1.6748,4.4169,4.4169,0,0,1,1.0991-1.2735,7.4945,7.4945,0,0,1,1.5-.9248,9.4491,9.4491,0,0,1,1.6226-.5927v-.07a8.3526,8.3526,0,0,1-1.5879-.1739,5.7928,5.7928,0,0,1-1.6567-.5927,3.8153,3.8153,0,0,1-1.291-1.1514,3.0425,3.0425,0,0,1-.5235-1.8145,3.935,3.935,0,0,1,.0874-.6279,4.1056,4.1056,0,0,1,.4009-1.0645,5.469,5.469,0,0,1,.96-1.2734,7.2961,7.2961,0,0,1,1.727-1.2558q-.3143-.2433-.6977-.5752a4.9929,4.9929,0,0,1-.7154-.7676,4.2011,4.2011,0,0,1-.5581-1.0117,3.6526,3.6526,0,0,1-.2265-1.3438,4.5748,4.5748,0,0,1,.4707-2.041,5.01,5.01,0,0,1,1.3432-1.6748,6.6128,6.6128,0,0,1,2.1455-1.1338,9.0988,9.0988,0,0,1,2.8438-.418,6.8136,6.8136,0,0,1,2.7036.4883,8.7765,8.7765,0,0,1,1.9365,1.1162,9.1762,9.1762,0,0,1,1.57-1.2041,3.7048,3.7048,0,0,1,1.8492-.4,2.0629,2.0629,0,0,1,1.5175.5059,1.77,1.77,0,0,1,.5059,1.3076,1.4519,1.4519,0,0,1-.4184,1.1,1.5472,1.5472,0,0,1-1.1167.4014,1.8637,1.8637,0,0,1-.7852-.14,1.2682,1.2682,0,0,1-.4531-.332,1.0007,1.0007,0,0,1-.2095-.418c-.0352-.1513-.0645-.2734-.0874-.3672a6.0522,6.0522,0,0,0-.14-.7324c-.0468-.1621-.1977-.2441-.4531-.2441a1.0338,1.0338,0,0,0-.4887.1572q-.28.1568-.9766.6455a9.249,9.249,0,0,1,.9067,1.2031A4.0142,4.0142,0,0,1,140.6,494.6a4.7509,4.7509,0,0,1-.3315,1.7275,4.1841,4.1841,0,0,1-1.0816,1.5518,5.668,5.668,0,0,1-1.9365,1.1338,8.5211,8.5211,0,0,1-2.93.4365,9.9218,9.9218,0,0,1-2.477-.2793,14.8,14.8,0,0,1-1.7793-.5576,2.9564,2.9564,0,0,0-1.1866,1.1338,2.4732,2.4732,0,0,0-.1743.8545,1.4,1.4,0,0,0,.6978,1.291,3.6443,3.6443,0,0,0,1.8838.418h3.8379A11.9208,11.9208,0,0,1,137.6519,502.5713Zm-7.4488,9.0185a3.6468,3.6468,0,0,0,1.9888,2.4424,4.8369,4.8369,0,0,0,2.1631.419,5.324,5.324,0,0,0,1.9189-.3487,4.8476,4.8476,0,0,0,2.6865-2.4775,4.3766,4.3766,0,0,0,.4185-1.9189,3.5528,3.5528,0,0,0-.3491-1.6915,2.987,2.987,0,0,0-2.0235-1.5527,5.2963,5.2963,0,0,0-1.1513-.14h-3.6279a8.04,8.04,0,0,0-1.6226,1.6748,3.8716,3.8716,0,0,0-.5757,2.2324A5.87,5.87,0,0,0,130.2031,511.59Zm4.9893-12.7861a1.675,1.675,0,0,0,.8374-.6279,3.5679,3.5679,0,0,0,.5405-1.36,11.41,11.41,0,0,0,.1919-2.32q0-1.0122-.07-1.8662a4.5826,4.5826,0,0,0-.3486-1.4834,2.2339,2.2339,0,0,0-.8028-.9766,2.6251,2.6251,0,0,0-1.4653-.3486,2.5591,2.5591,0,0,0-1.43.3662,2.43,2.43,0,0,0-.855.959,4.35,4.35,0,0,0-.4009,1.3613,11.605,11.605,0,0,0-.1049,1.5694,13.0087,13.0087,0,0,0,.2094,2.6172,3.9755,3.9755,0,0,0,.5757,1.4824,1.5955,1.5955,0,0,0,.89.6455,4.3243,4.3243,0,0,0,1.1162.14A3.6541,3.6541,0,0,0,135.1924,498.8037Z" transform="translate(-16.0869 -187.007)"/><path class="cls-1" d="M151.3452,489.82v2.9307h.07a7.1805,7.1805,0,0,1,1.6919-2.2852,4.0349,4.0349,0,0,1,2.8086-.96,3.4976,3.4976,0,0,1,2.3726.7851,2.7325,2.7325,0,0,1,.9067,2.1807,2.45,2.45,0,0,1-.5058,1.64,2.021,2.021,0,0,1-1.6221.5928,3.2181,3.2181,0,0,1-1.4653-.3311,1.2538,1.2538,0,0,1-.6631-1.2382,3.21,3.21,0,0,1,.0351-.3662c.023-.1748.0523-.36.0869-.5586s.064-.378.0874-.5411.0347-.2558.0347-.2793a1.6038,1.6038,0,0,0-.1045-.4355.7416.7416,0,0,0-.2265-.2793.7636.7636,0,0,0-.4712-.1221,1.7481,1.7481,0,0,0-.8721.3311,3.6249,3.6249,0,0,0-.9771.96,6.4027,6.4027,0,0,0-.7846,1.5175,5.6963,5.6963,0,0,0-.3316,2.0059v8.9316h2.7559v.4883h-9.28v-.4883h2.2681v-13.99h-2.2681V489.82Z" transform="translate(-16.0869 -187.007)"/><path class="cls-1" d="M174.8071,505.1016a11.7785,11.7785,0,0,1-1.727.1386,4.4628,4.4628,0,0,1-2.6343-.6279,2.6882,2.6882,0,0,1-1.064-1.7441h-.07a3.376,3.376,0,0,1-1.5351,1.8838,6.4846,6.4846,0,0,1-2.8257.4882,8.7076,8.7076,0,0,1-1.7095-.1738,5.9535,5.9535,0,0,1-1.605-.5586,3.166,3.166,0,0,1-1.186-1.0635,2.9175,2.9175,0,0,1-.4536-1.6572,3.278,3.278,0,0,1,.4013-1.6924,3.8054,3.8054,0,0,1,1.0464-1.1513,5.83,5.83,0,0,1,1.4654-.7676q.8194-.2959,1.6919-.5752,1.43-.4189,2.32-.7158a5.69,5.69,0,0,0,1.3779-.628,1.8713,1.8713,0,0,0,.6807-.75,2.6193,2.6193,0,0,0,.1919-1.081v-2.1289a3.3008,3.3008,0,0,0-.4537-1.709,1.8175,1.8175,0,0,0-1.7094-.7676,2.6,2.6,0,0,0-1.3955.3662,1.45,1.45,0,0,0-.5933,1.3428,3.1591,3.1591,0,0,0,.0347.3662q.0343.2622.07.5762c.0229.209.0464.4072.07.5928a3.8429,3.8429,0,0,1,.0352.3837,1.2559,1.2559,0,0,1-.2447.82,1.4866,1.4866,0,0,1-.5756.4355,2.0168,2.0168,0,0,1-.6978.1572q-.3662.0175-.61.0176a5.0233,5.0233,0,0,1-.7154-.0527,1.4857,1.4857,0,0,1-.6455-.2442,1.5257,1.5257,0,0,1-.4707-.54,1.9618,1.9618,0,0,1-.1919-.9424,2.7393,2.7393,0,0,1,.5059-1.6221,4.045,4.045,0,0,1,1.3432-1.1865,7.11,7.11,0,0,1,1.9014-.7148,9.8545,9.8545,0,0,1,2.2153-.2442,14.1519,14.1519,0,0,1,2.4947.209,5.4068,5.4068,0,0,1,2.0234.7676,4.003,4.003,0,0,1,1.36,1.5176,5.174,5.174,0,0,1,.5063,2.4248v8.6523a3.2827,3.2827,0,0,0,.1914,1.169q.1919.5054.9595.5058a1.4658,1.4658,0,0,0,.7505-.1748,2.4528,2.4528,0,0,0,.5756-.4883l.314.3135A1.9732,1.9732,0,0,1,174.8071,505.1016Zm-5.7041-8.9668a1.0451,1.0451,0,0,1-.2617.4013,2.7639,2.7639,0,0,1-.6807.4366q-.6627.3134-1.3256.61a4.7774,4.7774,0,0,0-1.1861.75,3.579,3.579,0,0,0-.855,1.1162,3.8256,3.8256,0,0,0-.331,1.71c0,.2783.0171.6045.0522.9765a3.52,3.52,0,0,0,.2788,1.0811,2.3042,2.3042,0,0,0,.6807.89,1.9449,1.9449,0,0,0,1.2559.3663,2.0373,2.0373,0,0,0,.89-.209,2.27,2.27,0,0,0,.7852-.6455,3.3258,3.3258,0,0,0,.5581-1.1514,6.2,6.2,0,0,0,.2095-1.7266v-4.6054Z" transform="translate(-16.0869 -187.007)"/><path class="cls-1" d="M180.8076,485.668a4.1242,4.1242,0,0,0,2.1279,0A8.5383,8.5383,0,0,0,184,485.3193v4.501h4.0815v.4883H184v11.6875a6.3933,6.3933,0,0,0,.0693.9766,2.6033,2.6033,0,0,0,.2618.82,1.3988,1.3988,0,0,0,.5585.5752,1.9207,1.9207,0,0,0,.959.21,2.1823,2.1823,0,0,0,1.1343-.2793,2.9976,2.9976,0,0,0,.82-.7158,3.9822,3.9822,0,0,0,.5757-.9941,9.1589,9.1589,0,0,0,.3662-1.0811l.5235.1045a4.683,4.683,0,0,1-.7154,1.9014,3.7992,3.7992,0,0,1-1.1513,1.0986,3.9393,3.9393,0,0,1-1.378.5059,8.44,8.44,0,0,1-1.3955.122,7.47,7.47,0,0,1-2.8086-.4179,3.4511,3.4511,0,0,1-1.4653-1.0469,2.6556,2.6556,0,0,1-.541-1.36q-.07-.7323-.0693-1.3613V490.3086h-2.3379V489.82h2.3379v-4.501A8.4814,8.4814,0,0,0,180.8076,485.668Z" transform="translate(-16.0869 -187.007)"/><path class="cls-1" d="M196.5591,489.82v14.4785h2.3379v.4883h-8.9317v-.4883h2.3374v-13.99h-2.3374V489.82Zm-3.8726-9.2451a2.443,2.443,0,1,1-.7324,1.7441A2.38,2.38,0,0,1,192.6865,480.5752Z" transform="translate(-16.0869 -187.007)"/><path class="cls-1" d="M207.9321,489.82v.4883H205.42l4.2915,9.6641,3.8028-9.6641h-2.6866V489.82h4.8843v.4883h-1.6045L207.9321,505.73h-.2793L200.71,490.3086h-1.8838V489.82Z" transform="translate(-16.0869 -187.007)"/><path class="cls-1" d="M220.9458,497.6006q0,1.2554.1045,2.5293a7.1292,7.1292,0,0,0,.5581,2.3027,4.2238,4.2238,0,0,0,1.3257,1.6914,3.9557,3.9557,0,0,0,2.4424.6631,4.8671,4.8671,0,0,0,2.3549-.5234,5.8516,5.8516,0,0,0,1.57-1.2032,5.273,5.273,0,0,0,.9072-1.3437,3.8,3.8,0,0,0,.3315-.9766l.4883.1739a6.14,6.14,0,0,1-.5932,1.413,5.2973,5.2973,0,0,1-1.1514,1.3956,6.2558,6.2558,0,0,1-1.814,1.082,7.0158,7.0158,0,0,1-2.6167.4355,10.33,10.33,0,0,1-3.3842-.54,8.06,8.06,0,0,1-2.7383-1.57,7.2223,7.2223,0,0,1-1.8321-2.5117,8.1694,8.1694,0,0,1-.6626-3.3672,7.2226,7.2226,0,0,1,.628-2.9307,8.2223,8.2223,0,0,1,1.727-2.5293,8.8153,8.8153,0,0,1,2.5816-1.7793,7.5667,7.5667,0,0,1,3.1923-.68,8.1081,8.1081,0,0,1,2.4419.3838,6.5154,6.5154,0,0,1,2.1983,1.1856,6.1825,6.1825,0,0,1,1.605,2.0761,6.8448,6.8448,0,0,1,.6279,3.0528h-10.292Zm5.582-4.3965q0-.3838-.0351-.9414a3.8675,3.8675,0,0,0-.2442-1.1172,2.1928,2.1928,0,0,0-.68-.9414,2.0158,2.0158,0,0,0-1.3086-.3838,2.7213,2.7213,0,0,0-1.8316.5576,3.3705,3.3705,0,0,0-.9594,1.4131,7.15,7.15,0,0,0-.4009,1.85q-.0879.9946-.1221,1.9014h5.582Z" transform="translate(-16.0869 -187.007)"/><path class="cls-1" d="M251.4722,479.9473l6.0356,17.374h.07l6.14-17.374H272.44v.4882h-3.2094v23.8633H272.44v.4883H260.9966v-.4883h3.1748V480.4355h-.07l-8.5826,24.3516h-.5581l-8.6171-24.3516h-.07v23.8633h3.2095v.4883h-6.9775v-.4883h3.21V480.4355h-3.21v-.4882Z" transform="translate(-16.0869 -187.007)"/><path class="cls-1" d="M289.4829,505.1016a11.7785,11.7785,0,0,1-1.727.1386,4.4628,4.4628,0,0,1-2.6343-.6279,2.6882,2.6882,0,0,1-1.064-1.7441h-.07a3.3758,3.3758,0,0,1-1.5352,1.8838,6.4838,6.4838,0,0,1-2.8256.4882,8.7061,8.7061,0,0,1-1.7095-.1738,5.9523,5.9523,0,0,1-1.605-.5586,3.166,3.166,0,0,1-1.186-1.0635,2.9175,2.9175,0,0,1-.4536-1.6572,3.278,3.278,0,0,1,.4013-1.6924,3.8041,3.8041,0,0,1,1.0464-1.1513,5.8315,5.8315,0,0,1,1.4653-.7676q.82-.2959,1.6919-.5752,1.43-.4189,2.32-.7158a5.6889,5.6889,0,0,0,1.378-.628,1.87,1.87,0,0,0,.6806-.75,2.6176,2.6176,0,0,0,.1919-1.081v-2.1289a3.3008,3.3008,0,0,0-.4536-1.709,1.8176,1.8176,0,0,0-1.7095-.7676,2.6,2.6,0,0,0-1.3955.3662,1.45,1.45,0,0,0-.5932,1.3428,3.1755,3.1755,0,0,0,.0346.3662q.0345.2622.07.5762c.0229.209.0464.4072.07.5928s.0351.3144.0351.3837a1.2558,1.2558,0,0,1-.2446.82,1.4862,1.4862,0,0,1-.5757.4355,2.0163,2.0163,0,0,1-.6977.1572q-.3663.0175-.61.0176a5.0219,5.0219,0,0,1-.7153-.0527,1.4857,1.4857,0,0,1-.6455-.2442,1.5257,1.5257,0,0,1-.4707-.54,1.9618,1.9618,0,0,1-.1919-.9424,2.7393,2.7393,0,0,1,.5059-1.6221,4.045,4.045,0,0,1,1.3432-1.1865,7.11,7.11,0,0,1,1.9014-.7148,9.8538,9.8538,0,0,1,2.2153-.2442,14.15,14.15,0,0,1,2.4946.209,5.4066,5.4066,0,0,1,2.0235.7676,4.0019,4.0019,0,0,1,1.36,1.5176,5.174,5.174,0,0,1,.5064,2.4248v8.6523a3.2827,3.2827,0,0,0,.1914,1.169q.1918.5054.9595.5058a1.4651,1.4651,0,0,0,.75-.1748,2.4511,2.4511,0,0,0,.5757-.4883l.314.3135A1.9734,1.9734,0,0,1,289.4829,505.1016Zm-5.7041-8.9668a1.0474,1.0474,0,0,1-.2617.4013,2.7639,2.7639,0,0,1-.6807.4366q-.6629.3134-1.3257.61a4.775,4.775,0,0,0-1.186.75,3.579,3.579,0,0,0-.855,1.1162,3.8242,3.8242,0,0,0-.331,1.71c0,.2783.0171.6045.0522.9765a3.52,3.52,0,0,0,.2788,1.0811,2.3042,2.3042,0,0,0,.6807.89,1.9446,1.9446,0,0,0,1.2558.3663,2.0374,2.0374,0,0,0,.89-.209,2.2708,2.2708,0,0,0,.7852-.6455,3.3258,3.3258,0,0,0,.5581-1.1514,6.2006,6.2006,0,0,0,.2094-1.7266v-4.6054Z" transform="translate(-16.0869 -187.007)"/><path class="cls-1" d="M294.6636,504.2988v-13.99h-2.3028V489.82H298.85v3.4883h.07q.1385-.3135.4883-.959a5.1612,5.1612,0,0,1,1.0117-1.2734,6.076,6.076,0,0,1,1.7095-1.0987,6.3744,6.3744,0,0,1,2.6167-.4716,4.7267,4.7267,0,0,1,3.5762,1.3261,5.02,5.02,0,0,1,1.2734,3.628v9.8388h2.3369v.4883h-8.7563v-.4883h2.1631V493.2744a3.2169,3.2169,0,0,0-.5933-2.1455,2.02,2.02,0,0,0-1.605-.6807,3.4158,3.4158,0,0,0-1.6045.4014,3.8621,3.8621,0,0,0-1.3432,1.2031,6.569,6.569,0,0,0-.9248,1.9893,9.9271,9.9271,0,0,0-.3487,2.791v7.4658h2.1978v.4883h-8.7569v-.4883Z" transform="translate(-16.0869 -187.007)"/><path class="cls-1" d="M319.9912,489.82v11.06a4.5053,4.5053,0,0,0,.5234,2.25,1.9434,1.9434,0,0,0,1.85.9248,2.87,2.87,0,0,0,1.4648-.3838,3.6689,3.6689,0,0,0,1.1338-1.0293,4.9851,4.9851,0,0,0,.7334-1.5176,6.3,6.3,0,0,0,.2607-1.8144v-9.001h-2.3017V489.82h6.5586v14.4785h2.3027v.4883h-6.4893v-2.8262h-.07a3.7378,3.7378,0,0,1-.8369,1.3438,5.5378,5.5378,0,0,1-1.2734.9765,5.8354,5.8354,0,0,1-1.5176.5928,6.7387,6.7387,0,0,1-1.57.1924,5.7308,5.7308,0,0,1-3.7324-1.0644,4.4379,4.4379,0,0,1-1.291-3.61v-10.083h-2.3379V489.82Z" transform="translate(-16.0869 -187.007)"/><path class="cls-1" d="M349.6289,505.1016a11.785,11.785,0,0,1-1.7275.1386,4.4611,4.4611,0,0,1-2.6338-.6279,2.6869,2.6869,0,0,1-1.0645-1.7441h-.0693a3.3778,3.3778,0,0,1-1.5352,1.8838,6.4863,6.4863,0,0,1-2.8261.4882,8.705,8.705,0,0,1-1.709-.1738,5.95,5.95,0,0,1-1.6055-.5586,3.1645,3.1645,0,0,1-1.1855-1.0635,2.9177,2.9177,0,0,1-.4541-1.6572,3.2819,3.2819,0,0,1,.4013-1.6924,3.8122,3.8122,0,0,1,1.0469-1.1513,5.82,5.82,0,0,1,1.4648-.7676q.82-.2959,1.6924-.5752,1.43-.4189,2.32-.7158a5.7071,5.7071,0,0,0,1.378-.628,1.8776,1.8776,0,0,0,.6806-.75,2.6264,2.6264,0,0,0,.1914-1.081v-2.1289a3.3,3.3,0,0,0-.4531-1.709,1.8184,1.8184,0,0,0-1.71-.7676,2.6029,2.6029,0,0,0-1.3956.3662,1.45,1.45,0,0,0-.5927,1.3428,3.1257,3.1257,0,0,0,.0342.3662q.0351.2622.07.5762c.0224.209.0459.4072.0693.5928a3.7214,3.7214,0,0,1,.0352.3837,1.2586,1.2586,0,0,1-.2442.82,1.4878,1.4878,0,0,1-.5762.4355,2.0135,2.0135,0,0,1-.6972.1572c-.2442.0117-.4483.0176-.61.0176a5.0235,5.0235,0,0,1-.7158-.0527,1.4881,1.4881,0,0,1-.6455-.2442,1.5355,1.5355,0,0,1-.4707-.54A1.9622,1.9622,0,0,1,335.9,493.1a2.7364,2.7364,0,0,1,.5058-1.6221,4.0494,4.0494,0,0,1,1.3428-1.1865,7.1166,7.1166,0,0,1,1.9014-.7148,9.8583,9.8583,0,0,1,2.2158-.2442,14.1421,14.1421,0,0,1,2.4942.209,5.4042,5.4042,0,0,1,2.0234.7676,3.9938,3.9938,0,0,1,1.36,1.5176,5.1726,5.1726,0,0,1,.5069,2.4248v8.6523a3.2827,3.2827,0,0,0,.1914,1.169q.1918.5054.959.5058a1.4658,1.4658,0,0,0,.7509-.1748,2.4493,2.4493,0,0,0,.5752-.4883l.3145.3135A1.9743,1.9743,0,0,1,349.6289,505.1016Zm-5.7041-8.9668a1.0533,1.0533,0,0,1-.2617.4013,2.7839,2.7839,0,0,1-.6807.4366q-.6636.3134-1.3262.61a4.7812,4.7812,0,0,0-1.1855.75,3.58,3.58,0,0,0-.8555,1.1162,3.8311,3.8311,0,0,0-.331,1.71c0,.2783.0176.6045.0527.9765a3.5055,3.5055,0,0,0,.2783,1.0811,2.3042,2.3042,0,0,0,.6807.89,1.9449,1.9449,0,0,0,1.2559.3663,2.0373,2.0373,0,0,0,.89-.209,2.2618,2.2618,0,0,0,.7852-.6455,3.3172,3.3172,0,0,0,.5586-1.1514,6.2021,6.2021,0,0,0,.2089-1.7266v-4.6054Z" transform="translate(-16.0869 -187.007)"/><path class="cls-1" d="M358.8916,479.6328v24.666H361.23v.4883h-8.9316v-.4883h2.3369V480.1211h-2.3369v-.4883Z" transform="translate(-16.0869 -187.007)"/><path class="cls-1" d="M379.4053,480.4355a9.1985,9.1985,0,0,0-2.3028.2618,4.76,4.76,0,0,0-1.8144.9062,5.8813,5.8813,0,0,0-1.4307,1.7969,15.1976,15.1976,0,0,0-1.1513,2.9307h-.4532v-6.3838h21.875v6.3838h-.4541a15.13,15.13,0,0,0-1.15-2.9307,5.8945,5.8945,0,0,0-1.4306-1.7969,4.7616,4.7616,0,0,0-1.8145-.9062,9.2089,9.2089,0,0,0-2.3027-.2618H385.72v23.8633h3.21v.4883H377.4512v-.4883h3.21V480.4355Z" transform="translate(-16.0869 -187.007)"/><path class="cls-1" d="M398.6631,504.2988V480.1211H396.36v-.4883h6.5585v13.5361h.07q.139-.3134.4707-.9238a4.8434,4.8434,0,0,1,.9941-1.2217,6.1438,6.1438,0,0,1,1.6924-1.0634,6.46,6.46,0,0,1,2.6-.4541,4.7229,4.7229,0,0,1,3.5752,1.3261,5.0156,5.0156,0,0,1,1.2734,3.628v9.8388h2.3379v.4883h-8.7568v-.4883h2.1631V493.2744a3.22,3.22,0,0,0-.5928-2.1455,2.0213,2.0213,0,0,0-1.6055-.6807,3.4158,3.4158,0,0,0-1.6045.4014,3.8688,3.8688,0,0,0-1.3437,1.2031,6.5683,6.5683,0,0,0-.9238,1.9893,9.91,9.91,0,0,0-.35,2.791v7.4658h2.1983v.4883H396.36v-.4883Z" transform="translate(-16.0869 -187.007)"/><path class="cls-1" d="M422.5605,497.6006q0,1.2554.1045,2.5293a7.1319,7.1319,0,0,0,.5586,2.3027,4.2244,4.2244,0,0,0,1.3252,1.6914,3.9559,3.9559,0,0,0,2.4424.6631,4.8693,4.8693,0,0,0,2.3555-.5234,5.8546,5.8546,0,0,0,1.5693-1.2032,5.2445,5.2445,0,0,0,.9072-1.3437,3.812,3.812,0,0,0,.3321-.9766l.4883.1739a6.1657,6.1657,0,0,1-.5938,1.413,5.276,5.276,0,0,1-1.1514,1.3956,6.251,6.251,0,0,1-1.8134,1.082,7.0207,7.0207,0,0,1-2.6172.4355,10.33,10.33,0,0,1-3.3838-.54,8.05,8.05,0,0,1-2.7383-1.57,7.21,7.21,0,0,1-1.832-2.5117,8.1614,8.1614,0,0,1-.6631-3.3672,7.2241,7.2241,0,0,1,.6279-2.9307,8.2259,8.2259,0,0,1,1.7276-2.5293,8.819,8.819,0,0,1,2.581-1.7793,7.5688,7.5688,0,0,1,3.1924-.68,8.11,8.11,0,0,1,2.4424.3838,6.5188,6.5188,0,0,1,2.1982,1.1856,6.1864,6.1864,0,0,1,1.6045,2.0761,6.8366,6.8366,0,0,1,.6279,3.0528h-10.292Zm5.5821-4.3965q0-.3838-.0352-.9414a3.8672,3.8672,0,0,0-.2441-1.1172,2.196,2.196,0,0,0-.68-.9414,2.0168,2.0168,0,0,0-1.3086-.3838,2.7224,2.7224,0,0,0-1.832.5576,3.3652,3.3652,0,0,0-.959,1.4131,7.15,7.15,0,0,0-.4014,1.85q-.0879.9946-.1221,1.9014h5.5821Z" transform="translate(-16.0869 -187.007)"/><path class="cls-1" d="M441.54,489.82v2.9307h.0694a7.179,7.179,0,0,1,1.6924-2.2852,4.0339,4.0339,0,0,1,2.8086-.96,3.4969,3.4969,0,0,1,2.372.7851,2.7328,2.7328,0,0,1,.9072,2.1807,2.45,2.45,0,0,1-.5058,1.64,2.0216,2.0216,0,0,1-1.6221.5928,3.22,3.22,0,0,1-1.4658-.3311,1.2538,1.2538,0,0,1-.6631-1.2382,3.1932,3.1932,0,0,1,.0352-.3662c.0234-.1748.0527-.36.0869-.5586s.0644-.378.0879-.5411.0342-.2558.0342-.2793a1.5927,1.5927,0,0,0-.1045-.4355.7419.7419,0,0,0-.2266-.2793.7618.7618,0,0,0-.4707-.1221,1.7468,1.7468,0,0,0-.8721.3311,3.6246,3.6246,0,0,0-.9775.96,6.4171,6.4171,0,0,0-.7842,1.5175,5.6961,5.6961,0,0,0-.332,2.0059v8.9316h2.7558v.4883h-9.28v-.4883h2.2685v-13.99H435.085V489.82Z" transform="translate(-16.0869 -187.007)"/><path class="cls-1" d="M465.002,505.1016a11.7853,11.7853,0,0,1-1.7276.1386,4.4615,4.4615,0,0,1-2.6338-.6279,2.6863,2.6863,0,0,1-1.0644-1.7441h-.0694a3.3772,3.3772,0,0,1-1.5351,1.8838,6.4871,6.4871,0,0,1-2.8262.4882,8.7065,8.7065,0,0,1-1.709-.1738,5.949,5.949,0,0,1-1.6054-.5586,3.1655,3.1655,0,0,1-1.1856-1.0635,2.9185,2.9185,0,0,1-.4541-1.6572,3.2819,3.2819,0,0,1,.4014-1.6924,3.8131,3.8131,0,0,1,1.0468-1.1513,5.8185,5.8185,0,0,1,1.4649-.7676q.82-.2959,1.6924-.5752,1.43-.4189,2.32-.7158a5.7061,5.7061,0,0,0,1.3779-.628,1.8779,1.8779,0,0,0,.6807-.75,2.6281,2.6281,0,0,0,.1914-1.081v-2.1289a3.3013,3.3013,0,0,0-.4531-1.709,1.8187,1.8187,0,0,0-1.71-.7676,2.6023,2.6023,0,0,0-1.3955.3662,1.45,1.45,0,0,0-.5928,1.3428,3.1484,3.1484,0,0,0,.0342.3662q.0351.2622.07.5762c.0225.209.0459.4072.0693.5928a3.6923,3.6923,0,0,1,.0352.3837,1.2586,1.2586,0,0,1-.2441.82,1.4878,1.4878,0,0,1-.5762.4355,2.0136,2.0136,0,0,1-.6973.1572c-.2441.0117-.4482.0176-.61.0176a5.0235,5.0235,0,0,1-.7158-.0527,1.4885,1.4885,0,0,1-.6456-.2442,1.5365,1.5365,0,0,1-.4707-.54,1.9622,1.9622,0,0,1-.1914-.9424,2.7358,2.7358,0,0,1,.5059-1.6221,4.0485,4.0485,0,0,1,1.3428-1.1865,7.1172,7.1172,0,0,1,1.9013-.7148,9.8592,9.8592,0,0,1,2.2159-.2442,14.1417,14.1417,0,0,1,2.4941.209,5.4035,5.4035,0,0,1,2.0234.7676,3.994,3.994,0,0,1,1.36,1.5176,5.1738,5.1738,0,0,1,.5068,2.4248v8.6523a3.2827,3.2827,0,0,0,.1914,1.169q.192.5054.959.5058a1.4664,1.4664,0,0,0,.751-.1748,2.4493,2.4493,0,0,0,.5752-.4883l.3144.3135A1.9739,1.9739,0,0,1,465.002,505.1016Zm-5.7041-8.9668a1.0524,1.0524,0,0,1-.2618.4013,2.7829,2.7829,0,0,1-.6806.4366q-.6636.3134-1.3262.61a4.7812,4.7812,0,0,0-1.1855.75,3.5789,3.5789,0,0,0-.8555,1.1162,3.831,3.831,0,0,0-.3311,1.71c0,.2783.0176.6045.0528.9765a3.5,3.5,0,0,0,.2783,1.0811,2.303,2.303,0,0,0,.6806.89,1.9449,1.9449,0,0,0,1.2559.3663,2.0378,2.0378,0,0,0,.89-.209,2.2606,2.2606,0,0,0,.7851-.6455,3.3155,3.3155,0,0,0,.5586-1.1514,6.198,6.198,0,0,0,.209-1.7266v-4.6054Z" transform="translate(-16.0869 -187.007)"/><path class="cls-1" d="M467.4961,490.3086V489.82h6.4893v2.5811h.0693a4.0858,4.0858,0,0,1,4.1172-3.0694,7.0974,7.0974,0,0,1,3.4541.7842,7.5483,7.5483,0,0,1,2.3545,1.9717,8.1133,8.1133,0,0,1,1.36,2.582,8.7885,8.7885,0,0,1,.4375,2.6162,8.2582,8.2582,0,0,1-2.1123,5.53,7.5531,7.5531,0,0,1-2.39,1.7617,7.1546,7.1546,0,0,1-3.1045.6621,3.7341,3.7341,0,0,1-2.5821-.872,5.5,5.5,0,0,1-1.4648-2.0928h-.07v11.7568h2.3721v.4883h-8.9307v-.4883h2.3027V490.3086Zm6.6455,9.4023a8.7244,8.7244,0,0,0,.5059,2.4424,4.72,4.72,0,0,0,1.2392,1.8838,3.2585,3.2585,0,0,0,2.2852.75,2.2191,2.2191,0,0,0,1.5517-.5234,3.2549,3.2549,0,0,0,.8731-1.5,10.5218,10.5218,0,0,0,.3838-2.3555q.0864-1.377.0869-3.0869a33.6853,33.6853,0,0,0-.1572-3.541,8.0257,8.0257,0,0,0-.5411-2.32,2.7634,2.7634,0,0,0-.9765-1.2559,2.7108,2.7108,0,0,0-1.5-.3838,2.8572,2.8572,0,0,0-2.0586.7324,4.5559,4.5559,0,0,0-1.1514,1.8487,10.4332,10.4332,0,0,0-.5058,2.4424q-.1232,1.327-.1221,2.4775Q474.0547,498.4024,474.1416,499.7109Z" transform="translate(-16.0869 -187.007)"/><path class="cls-1" d="M501.5459,490.3086H498.65V489.82h5.0586v.4883h-1.6045q-1.954,4.1865-3.35,7.501t-2.4248,5.8965q-1.03,2.5811-1.8145,4.5527t-1.4824,3.4707a6.324,6.324,0,0,1-1.57,2.3027,3.5155,3.5155,0,0,1-2.3369.7324,4.1442,4.1442,0,0,1-2.5645-.75,2.453,2.453,0,0,1-.9941-2.0751,1.6641,1.6641,0,0,1,.6455-1.4659,2.6276,2.6276,0,0,1,1.5517-.4531,2.3571,2.3571,0,0,1,1.2569.3662,1.2084,1.2084,0,0,1,.5928,1.0987,1.9828,1.9828,0,0,1-.2266,1.0117,1.75,1.75,0,0,0-.2266.9072.7452.7452,0,0,0,.209.5762.7034.7034,0,0,0,.4883.1914,1.7888,1.7888,0,0,0,1.1689-.4531,4.9764,4.9764,0,0,0,.9766-1.1338,10.1693,10.1693,0,0,0,.7676-1.4483q.3311-.7676.5762-1.3955l1.5-3.7334-6.56-15.6992H486.44V489.82h8.8613v.4883h-2.4424l4.2568,10.083Z" transform="translate(-16.0869 -187.007)"/><path class="cls-1" d="M179.0122,538.5068a15.371,15.371,0,0,0,.5234-4.3779,9.85,9.85,0,0,0-.227-2.3555,3.1338,3.1338,0,0,0-.68-1.3779,2.2941,2.2941,0,0,0-1.1338-.6631,6.4409,6.4409,0,0,0-1.5874-.1738v-.4893h7.0474v.4893a11.7055,11.7055,0,0,0-1.3257.2959,1.64,1.64,0,0,0-.855.5937,3.0071,3.0071,0,0,0-.4883,1.2559,17.46,17.46,0,0,0-.2265,2.3193q-.0353.6988-.1221,1.6573-.0879.9609-.2793,1.9892a15.2693,15.2693,0,0,1-.5234,2.0235,7.7907,7.7907,0,0,1-.8545,1.7968l1.6045,2.8252a3.8188,3.8188,0,0,0,.4887.628,1.2488,1.2488,0,0,0,.9766.3837,1.0685,1.0685,0,0,0,.8374-.3486,2.839,2.839,0,0,0,.5059-.8027,3.2964,3.2964,0,0,0,.2441-.8721,5.529,5.529,0,0,0,.0523-.5576,2.662,2.662,0,0,0-.0171-.3145,1.323,1.323,0,0,0-.0874-.3134h.4882a1.1012,1.1012,0,0,1,.07.2265,1.5432,1.5432,0,0,1,.0351.3311q0,.1406-.07.8554a4.0353,4.0353,0,0,1-.5059,1.5176,4.3,4.3,0,0,1-1.3608,1.4473,4.4908,4.4908,0,0,1-2.5991.6455,3.9781,3.9781,0,0,1-2.3721-.61,6.8753,6.8753,0,0,1-1.4653-1.4482q-.5237.419-1.0293.7852a6.0371,6.0371,0,0,1-1.1514.6455,7.8116,7.8116,0,0,1-1.4829.4541,9.7521,9.7521,0,0,1-1.9536.1738,9.2939,9.2939,0,0,1-4.291-.8545,7.56,7.56,0,0,1-2.5645-2.0586,6.9106,6.9106,0,0,1-1.2558-2.4941,9.0426,9.0426,0,0,1-.3316-2.1983,6.2719,6.2719,0,0,1,.6455-2.8779,9.4409,9.4409,0,0,1,1.64-2.3027,14.487,14.487,0,0,1,2.1806-1.85q1.1851-.8188,2.3023-1.5176-.5581-1.4649-.8369-2.3545a5.9582,5.9582,0,0,1-.2793-1.7969,5.1133,5.1133,0,0,1,.436-2.0762,6.2926,6.2926,0,0,1,1.169-1.7793,5.8622,5.8622,0,0,1,1.6743-1.2558,4.2535,4.2535,0,0,1,1.9189-.4707,4.0851,4.0851,0,0,1,1.2559.1914,2.8068,2.8068,0,0,1,1.0469.6113,2.8723,2.8723,0,0,1,.7153,1.0986,4.6336,4.6336,0,0,1,.2612,1.6573,5.0213,5.0213,0,0,1-.5752,2.2148,6.9188,6.9188,0,0,1-2.46,2.4248l5.8613,11.4785A9.19,9.19,0,0,0,179.0122,538.5068Zm-10.71-6.4892a7.1193,7.1193,0,0,0-.314-.6455q-.7332.5595-1.2734,1.0117a5.3816,5.3816,0,0,0-.9073.96,3.5553,3.5553,0,0,0-.541,1.1162,5.3133,5.3133,0,0,0-.1743,1.4482,7.5776,7.5776,0,0,0,.2441,1.6572,17.6216,17.6216,0,0,0,.6807,2.18,20.0883,20.0883,0,0,0,1.0464,2.3028,14.3843,14.3843,0,0,0,1.3257,2.0761,7.5549,7.5549,0,0,0,1.5351,1.5176,2.8073,2.8073,0,0,0,1.6573.5928,3.3,3.3,0,0,0,1.6918-.4356,13.5882,13.5882,0,0,0,1.6226-1.1338c-.2329-.3261-.4131-.5986-.541-.82s-.25-.459-.3662-.7148l-5.2329-10.1524Q168.5107,532.4884,168.3018,532.0176Zm6.28-8.251a3.579,3.579,0,0,0-.4189-1.0117,2.2768,2.2768,0,0,0-.7148-.7324,1.94,1.94,0,0,0-1.0645-.2793c-.0693,0-.2266.0117-.4707.0351a1.9457,1.9457,0,0,0-.7676.2617,2.0635,2.0635,0,0,0-.7153.7325,2.6773,2.6773,0,0,0-.314,1.413,4.5633,4.5633,0,0,0,.1572,1.1338,9.8826,9.8826,0,0,0,.4185,1.2559q.2615.6461.5933,1.291c.2207.4307.436.8193.6455,1.169q.3478-.2446.8369-.5938a5.2079,5.2079,0,0,0,.9248-.8545,4.7332,4.7332,0,0,0,.7324-1.1689,3.7306,3.7306,0,0,0,.2969-1.5352A4.6039,4.6039,0,0,0,174.5815,523.7666Z" transform="translate(-16.0869 -187.007)"/><path class="cls-1" d="M207.7944,546.165v.4883H196.3159v-.4883h3.21V522.3018h-3.21v-.4883h3.21q1.779,0,3.5586-.0528t3.5586-.0527a23.8955,23.8955,0,0,1,3.3842.2617,11.9394,11.9394,0,0,1,3.3492.9776,7.104,7.104,0,0,1,2.5639,1.9882,5.0826,5.0826,0,0,1,1.0293,3.2969,5.2419,5.2419,0,0,1-.6626,2.5645,5.9744,5.9744,0,0,1-2.0234,2.0927,11.3151,11.3151,0,0,1-3.4194,1.4131,19.853,19.853,0,0,1-4.8492.5235h-1.4306V546.165Zm-2.1284-11.8271a5.8412,5.8412,0,0,0,4.2915-1.3428q1.3249-1.3433,1.3257-4.5537a7.8982,7.8982,0,0,0-1.1514-4.64q-1.1513-1.6041-4.1865-1.6055c-.2563,0-.5005.0127-.7329.0351s-.4419.0469-.6279.07v12.0361Z" transform="translate(-16.0869 -187.007)"/><path class="cls-1" d="M223.25,539.4668q0,1.2554.1045,2.5293a7.1292,7.1292,0,0,0,.5581,2.3027,4.2238,4.2238,0,0,0,1.3257,1.6914,3.9557,3.9557,0,0,0,2.4424.6631,4.8671,4.8671,0,0,0,2.3549-.5234,5.8534,5.8534,0,0,0,1.57-1.2031,5.2734,5.2734,0,0,0,.9072-1.3438,3.8,3.8,0,0,0,.3315-.9766l.4883.1739a6.1385,6.1385,0,0,1-.5932,1.4131,5.2986,5.2986,0,0,1-1.1514,1.3955,6.2558,6.2558,0,0,1-1.814,1.082,7.0158,7.0158,0,0,1-2.6167.4355,10.3284,10.3284,0,0,1-3.3843-.54,8.0586,8.0586,0,0,1-2.7382-1.57,7.2214,7.2214,0,0,1-1.8321-2.5117,8.1694,8.1694,0,0,1-.6626-3.3672,7.2226,7.2226,0,0,1,.628-2.9307,8.2223,8.2223,0,0,1,1.727-2.5293,8.8153,8.8153,0,0,1,2.5816-1.7793,7.5667,7.5667,0,0,1,3.1923-.68,8.1081,8.1081,0,0,1,2.4419.3838,6.5154,6.5154,0,0,1,2.1983,1.1856,6.1819,6.1819,0,0,1,1.605,2.0762,6.8443,6.8443,0,0,1,.6279,3.0527H223.25Zm5.582-4.3965q0-.3837-.0351-.9414a3.8675,3.8675,0,0,0-.2442-1.1172,2.1928,2.1928,0,0,0-.68-.9414,2.0164,2.0164,0,0,0-1.3086-.3838,2.7213,2.7213,0,0,0-1.8316.5576,3.3717,3.3717,0,0,0-.96,1.4131,7.1553,7.1553,0,0,0-.4008,1.85q-.0879.9946-.1221,1.9014h5.582Z" transform="translate(-16.0869 -187.007)"/><path class="cls-1" d="M242.1934,521.499v24.666h2.3378v.4883H235.6v-.4883h2.3374V521.9873H235.6v-.4883Z" transform="translate(-16.0869 -187.007)"/><path class="cls-1" d="M253.5669,531.6865v.4883h-2.5122l4.2915,9.6641,3.8027-9.6641h-2.6865v-.4883h4.8843v.4883h-1.6045l-6.1753,15.4209h-.2793l-6.9429-15.4209h-1.8838v-.4883Z" transform="translate(-16.0869 -187.007)"/><path class="cls-1" d="M268.499,531.6865V546.165h2.3379v.4883h-8.9316v-.4883h2.3374v-13.99h-2.3374v-.4883Zm-3.8725-9.2451a2.4427,2.4427,0,1,1-.7325,1.7441A2.38,2.38,0,0,1,264.6265,522.4414Z" transform="translate(-16.0869 -187.007)"/><path class="cls-1" d="M272.999,536.4658a8.15,8.15,0,0,1,1.6572-2.5644,9.0505,9.0505,0,0,1,2.6866-1.9356,8.36,8.36,0,0,1,3.6806-.7676,9.6635,9.6635,0,0,1,2.4073.2784,6.3736,6.3736,0,0,1,1.8662.7851,3.8363,3.8363,0,0,1,1.2212,1.2217,2.9906,2.9906,0,0,1,.436,1.5869,1.9587,1.9587,0,0,1-.5928,1.6221,2.6331,2.6331,0,0,1-1.6748.4717,3.6624,3.6624,0,0,1-1.4829-.2969,1.207,1.207,0,0,1-.68-1.2383,2.3622,2.3622,0,0,1,.0874-.4883q.0866-.3486.1744-.7334.0864-.3823.1743-.7324a2.3978,2.3978,0,0,0,.0874-.4883,1.2513,1.2513,0,0,0-.6109-1.0986,2.7061,2.7061,0,0,0-1.5175-.4014,3.07,3.07,0,0,0-1.9883.5928,3.8416,3.8416,0,0,0-1.1343,1.5879,8.1523,8.1523,0,0,0-.523,2.3027q-.123,1.3082-.122,2.7735,0,1.3608.1045,2.7207a8.2259,8.2259,0,0,0,.5581,2.4775,4.3809,4.3809,0,0,0,1.3257,1.8135,3.69,3.69,0,0,0,2.3725.6982,5.1838,5.1838,0,0,0,2.4072-.5058,5.2505,5.2505,0,0,0,1.57-1.1866,5.3374,5.3374,0,0,0,.89-1.36,6.3064,6.3064,0,0,0,.3667-.9942l.4883.1739a8.1623,8.1623,0,0,1-.541,1.3789,4.7546,4.7546,0,0,1-1.064,1.3955,5.9492,5.9492,0,0,1-1.7969,1.0986,7.3274,7.3274,0,0,1-2.7734.4531q-.4533,0-1.2734-.0869a9.5164,9.5164,0,0,1-1.7793-.3838,10.9264,10.9264,0,0,1-1.9361-.8193,6.791,6.791,0,0,1-3.1225-3.5937,8.4016,8.4016,0,0,1-.5059-3.07A7.2169,7.2169,0,0,1,272.999,536.4658Z" transform="translate(-16.0869 -187.007)"/><path class="cls-1" d="M309.5605,521.8135v.4883h-3.2089v11.4433h10.082V522.3018h-3.21v-.4883h11.4785v.4883h-3.21V546.165h3.21v.4883H313.2236v-.4883h3.21V534.2334h-10.082V546.165h3.2089v.4883H298.083v-.4883h3.2095V522.3018H298.083v-.4883Z" transform="translate(-16.0869 -187.007)"/><path class="cls-1" d="M331.4355,539.4668q0,1.2554.1045,2.5293a7.1319,7.1319,0,0,0,.5586,2.3027,4.2244,4.2244,0,0,0,1.3252,1.6914,3.9559,3.9559,0,0,0,2.4424.6631,4.8693,4.8693,0,0,0,2.3555-.5234,5.8564,5.8564,0,0,0,1.5693-1.2031,5.2449,5.2449,0,0,0,.9072-1.3438,3.812,3.812,0,0,0,.3321-.9766l.4883.1739a6.1645,6.1645,0,0,1-.5938,1.4131,5.2772,5.2772,0,0,1-1.1514,1.3955,6.251,6.251,0,0,1-1.8134,1.082,7.0207,7.0207,0,0,1-2.6172.4355,10.3272,10.3272,0,0,1-3.3838-.54,8.0486,8.0486,0,0,1-2.7383-1.57,7.2086,7.2086,0,0,1-1.832-2.5117,8.1614,8.1614,0,0,1-.6631-3.3672,7.2241,7.2241,0,0,1,.6279-2.9307,8.2259,8.2259,0,0,1,1.7276-2.5293,8.819,8.819,0,0,1,2.581-1.7793,7.5688,7.5688,0,0,1,3.1924-.68,8.11,8.11,0,0,1,2.4424.3838,6.5188,6.5188,0,0,1,2.1982,1.1856,6.1858,6.1858,0,0,1,1.6045,2.0762,6.8362,6.8362,0,0,1,.6279,3.0527h-10.292Zm5.5821-4.3965q0-.3837-.0352-.9414a3.8672,3.8672,0,0,0-.2441-1.1172,2.196,2.196,0,0,0-.68-.9414,2.0174,2.0174,0,0,0-1.3086-.3838,2.7224,2.7224,0,0,0-1.832.5576,3.3652,3.3652,0,0,0-.959,1.4131,7.1513,7.1513,0,0,0-.4014,1.85q-.0879.9946-.1221,1.9014h5.5821Z" transform="translate(-16.0869 -187.007)"/><path class="cls-1" d="M358.8047,546.9678a11.7723,11.7723,0,0,1-1.7266.1386,4.4637,4.4637,0,0,1-2.6347-.6279,2.6888,2.6888,0,0,1-1.0635-1.7441h-.07a3.3738,3.3738,0,0,1-1.5352,1.8838,6.4822,6.4822,0,0,1-2.8252.4882,8.707,8.707,0,0,1-1.71-.1738,5.95,5.95,0,0,1-1.6045-.5586,3.1685,3.1685,0,0,1-1.1866-1.0635,2.9181,2.9181,0,0,1-.4531-1.6572,3.2721,3.2721,0,0,1,.4014-1.6924,3.796,3.796,0,0,1,1.0459-1.1513,5.84,5.84,0,0,1,1.4658-.7676q.8188-.296,1.6914-.5752,1.4312-.419,2.32-.7158a5.6708,5.6708,0,0,0,1.378-.628,1.8638,1.8638,0,0,0,.6806-.75,2.61,2.61,0,0,0,.1924-1.081v-2.1289a3.3014,3.3014,0,0,0-.4541-1.709,1.8168,1.8168,0,0,0-1.709-.7676,2.5977,2.5977,0,0,0-1.3955.3662,1.4488,1.4488,0,0,0-.5937,1.3428,3.21,3.21,0,0,0,.0351.3662q.0337.2622.0693.5762c.0235.209.0469.4072.07.5928s.0351.3144.0351.3838a1.253,1.253,0,0,1-.2451.82,1.4847,1.4847,0,0,1-.5752.4355,2.019,2.019,0,0,1-.6982.1572c-.2442.0118-.4473.0176-.61.0176a5.02,5.02,0,0,1-.7148-.0527,1.4828,1.4828,0,0,1-.6455-.2442,1.515,1.515,0,0,1-.4707-.54,1.96,1.96,0,0,1-.1924-.9424,2.7421,2.7421,0,0,1,.5058-1.622,4.0415,4.0415,0,0,1,1.3438-1.1866,7.1076,7.1076,0,0,1,1.9013-.7148,9.85,9.85,0,0,1,2.2149-.2442,14.1606,14.1606,0,0,1,2.4951.209,5.41,5.41,0,0,1,2.0234.7676,4.01,4.01,0,0,1,1.36,1.5176,5.1742,5.1742,0,0,1,.5059,2.4248V544.77a3.28,3.28,0,0,0,.1914,1.169q.1919.5054.96.5058a1.4646,1.4646,0,0,0,.75-.1748,2.4529,2.4529,0,0,0,.5762-.4883l.3135.3135A1.9724,1.9724,0,0,1,358.8047,546.9678Zm-5.7041-8.9668a1.0416,1.0416,0,0,1-.2617.4013,2.7461,2.7461,0,0,1-.6807.4366q-.6621.3135-1.3252.61a4.7717,4.7717,0,0,0-1.1865.75,3.5788,3.5788,0,0,0-.8545,1.1162,3.8173,3.8173,0,0,0-.3311,1.71c0,.2783.0166.6045.0518.9766a3.5328,3.5328,0,0,0,.2793,1.081,2.3043,2.3043,0,0,0,.6807.89,1.9452,1.9452,0,0,0,1.2558.3662,2.0378,2.0378,0,0,0,.89-.209,2.2787,2.2787,0,0,0,.7851-.6455,3.3309,3.3309,0,0,0,.5576-1.1514,6.1951,6.1951,0,0,0,.21-1.7266V538.001Z" transform="translate(-16.0869 -187.007)"/><path class="cls-1" d="M368.0674,521.499v24.666h2.3379v.4883h-8.9317v-.4883h2.3379V521.9873h-2.3379v-.4883Z" transform="translate(-16.0869 -187.007)"/><path class="cls-1" d="M375.377,527.5342a4.1242,4.1242,0,0,0,2.1279,0,8.5694,8.5694,0,0,0,1.0644-.3487v4.501H382.65v.4883h-4.0811v11.6875a6.38,6.38,0,0,0,.0694.9766,2.593,2.593,0,0,0,.2617.82,1.3959,1.3959,0,0,0,.5586.5752,1.92,1.92,0,0,0,.959.21,2.18,2.18,0,0,0,1.1338-.2793,3.001,3.001,0,0,0,.82-.7158,3.987,3.987,0,0,0,.5752-.9941,9.0091,9.0091,0,0,0,.3662-1.0811l.5234.1045a4.6815,4.6815,0,0,1-.7148,1.9014,3.81,3.81,0,0,1-1.1514,1.0986,3.9388,3.9388,0,0,1-1.3779.5059,8.4455,8.4455,0,0,1-1.3955.122,7.4681,7.4681,0,0,1-2.8086-.4179,3.4555,3.4555,0,0,1-1.4658-1.0469,2.6641,2.6641,0,0,1-.5411-1.36q-.07-.7323-.0693-1.3613V532.1748h-2.3379v-.4883h2.3379v-4.501A8.458,8.458,0,0,0,375.377,527.5342Z" transform="translate(-16.0869 -187.007)"/><path class="cls-1" d="M386.8711,546.165V521.9873h-2.3018v-.4883h6.5586v13.5362h.0694q.1391-.3135.4716-.9239a4.8222,4.8222,0,0,1,.9942-1.2217,6.1273,6.1273,0,0,1,1.6924-1.0634,6.4552,6.4552,0,0,1,2.5986-.4541,4.727,4.727,0,0,1,3.5762,1.3261,5.02,5.02,0,0,1,1.2734,3.628v9.8388h2.3379v.4883h-8.7578v-.4883h2.1631V535.1406a3.2142,3.2142,0,0,0-.5928-2.1455,2.0191,2.0191,0,0,0-1.6045-.6806,3.42,3.42,0,0,0-1.6055.4013,3.866,3.866,0,0,0-1.3427,1.2031,6.569,6.569,0,0,0-.9248,1.9893,9.9454,9.9454,0,0,0-.3487,2.791v7.4658h2.1983v.4883h-8.7569v-.4883Z" transform="translate(-16.0869 -187.007)"/></svg>