<svg width="321" height="220" viewBox="0 0 321 220" fill="none" xmlns="http://www.w3.org/2000/svg">
<path d="M150 31C77.5266 -29.721 23.2774 13.7875 1.34297 39.8758C0.455837 40.9309 5.81402e-05 42.2526 5.67679e-05 43.6311L4.73346e-05 53.107C4.17118e-05 58.7552 7.36707 61.5154 11.4624 57.6256C37.637 32.7649 86.9141 6.64426 150 59.5C223.558 121.13 305.516 63.0353 315.822 31.564C315.949 31.1777 316 30.7935 316 30.387V30.387C316 25.6313 303.775 21.9523 300.371 25.2733C271.146 53.7855 207.965 79.5654 150 31Z" fill="#50D9F7"/>
<path d="M154.5 97.2647C82.0266 36.5437 27.7773 80.0522 5.84294 106.14C4.9558 107.196 4.50002 108.517 4.50002 109.896L4.50001 119.372C4.50001 125.02 11.867 127.78 15.9624 123.89C42.137 99.0296 91.4141 72.9089 154.5 125.765C228.058 187.395 310.016 129.3 320.322 97.8286C320.449 97.4424 320.5 97.0581 320.5 96.6517V96.6517C320.5 91.8959 308.275 88.2169 304.871 91.538C275.646 120.05 212.465 145.83 154.5 97.2647Z" fill="#50D9F7"/>
<path d="M154.5 164.096C82.0266 103.375 27.7773 146.883 5.84292 172.972C4.95578 174.027 4.5 175.348 4.5 176.727L4.49999 186.203C4.49999 191.851 11.867 194.611 15.9624 190.721C42.1369 165.861 91.4141 139.74 154.5 192.596C228.058 254.226 310.015 196.131 320.322 164.66C320.449 164.273 320.5 163.889 320.5 163.483C320.5 158.727 308.275 155.048 304.871 158.369C275.646 186.881 212.465 212.661 154.5 164.096Z" fill="#50D9F7"/>
</svg>
